<svg xmlns="http://www.w3.org/2000/svg" viewBox="0 0 3419 456.42"><defs><style>.cls-1{fill:#cc7400;}.cls-2{fill:#aa6100;}.cls-3{fill:#ee8700;}.cls-4{fill:#ff9811;}.cls-5{fill:#dd8114;}</style></defs><title>homeFichier 2@9x-8</title><g id="Calque_2" data-name="Calque 2"><g id="Capa_1" data-name="Capa 1"><path class="cls-1" d="M3273.32,57.63v368.6c0,16.37-67.51,29.77-149.94,29.77H295.62c-82.5,0-150.26-2.68-150-29.77V57.63c0-4.93,14.64-9.22,35.71-11.23,8.23-.79,17.36-1.23,27.06-1.23H3210.55C3245.07,45.17,3273.32,50.77,3273.32,57.63Z"/><path class="cls-2" d="M3419,17.6v65c0,9.68-40,17.61-88.71,17.61H88.71C39.89,100.17,0,92.24,0,82.56v-65C0,7.93,39.89,0,88.71,0H3330.29C3379,0,3419,7.93,3419,17.6Z"/><path class="cls-1" d="M3419,17.6v65c0,9.68-31.49,17.61-69.9,17.61H975.56c-38.46,0-59.89-.71-59.89-17.61v-65C915.67,0,937.1,0,975.56,0H3349.1C3387.51,0,3419,7.93,3419,17.6Z"/><path id="SVGCleanerId_0" data-name="SVGCleanerId 0" class="cls-3" d="M3273.32,100.17V426.23c0,16.37-55.07,29.77-122.31,29.77H1041.93c-67.29,0-121.62,6.28-122.36-29.77V100.17Z"/><path id="SVGCleanerId_0-2" data-name="SVGCleanerId 0" class="cls-3" d="M3273.32,100.17V426.23c0,16.37-36.44,29.77-80.93,29.77H1796.77c-44.53,0-81-13.4-81-29.77V100.17Z"/><path class="cls-4" d="M3273.32,153.35V124l-154.75,81.55L2988,136.73l69.37-36.56h-55.72l-41.52,21.88-41.52-21.88H2886.8l-41.52,21.88-41.52-21.88H2748l69.38,36.56-130.56,68.81-130.57-68.81,69.38-36.56h-55.72l-41.52,21.88-41.52-21.88h-31.83l-41.52,21.88L2372,100.17h-55.72l69.38,36.56-130.56,68.81-157.82-82.27v29.37l130,67.58-29.57,15.59c-21-11.06-80.45-41.49-100.39-52v29.37l72.52,37.31-72.52,35.89v29.37l100.39-50.58,29.57,15.58-130,66.17v29.36c19.84-10.45,137.67-70.22,157.82-80.84l130.56,68.8L2211.59,456h55.72l146.25-77.07,29.57,15.58L2326.45,456h55.73L2471,409.19,2559.8,456h55.73l-116.68-61.49,29.57-15.58h0L2674.67,456H2699l146.24-77.07h0l29.57,15.58-96.79,51L2758.18,456h55.72l88.81-46.8,88.82,46.8h55.72l-116.67-61.49,29.57-15.58L3106.39,456h55.73L2988,364.25l130.56-68.81L3273.33,377V347.63l-126.89-66.87L3176,265.17l97.32,51.29V287.09l-69.46-36.6,69.46-36.6V184.52L3176,235.81l-29.57-15.59Zm-313.18-1.94,130.57,68.81-29.57,15.58L2930.57,167Zm73.14,99.08-130.57,68.8-130.57-68.8,130.57-68.81ZM2902.71,121.15l29.57,15.58-29.57,15.58-29.57-15.58Zm-57.43,30.26L2874.85,167l-130.57,68.8-29.57-15.58Zm-128.86,99.08-29.57,15.58h0l-29.57-15.58,29.57-15.59ZM2659,220.22l-29.57,15.58-86.05-45.34L2498.85,167l29.57-15.59Zm-57.43,30.27L2471,319.29l-130.57-68.8L2471,181.68ZM2471,121.15l29.57,15.58L2471,152.31l-29.57-15.58Zm-57.43,30.26L2443.13,167l-83.26,43.87-47.31,24.93L2283,220.22Zm-188,99.08,29.57-15.59h0l29.57,15.59-29.57,15.58ZM2283,280.75l29.57-15.58L2443.13,334l-29.57,15.58Zm188,99.08-29.57-15.59L2471,348.66l29.57,15.58Zm57.43-30.27L2498.85,334l130.57-68.81L2659,280.75Zm158.43,83.49-130.57-68.81,130.57-68.8,130.57,68.8Zm27.86-152.3h0l29.57-15.58L2874.85,334l-29.57,15.58Zm188,99.08-29.57-15.59,29.57-15.58,29.57,15.58Zm57.43-30.27L2930.57,334l130.57-68.81,29.57,15.58Zm188-99.07-29.57,15.58L3089,250.49l29.57-15.59Z"/><path class="cls-4" d="M2097.31,152.64V123.27l-154.76,81.56L1812,136l69.38-36.56h-55.73l-41.52,21.88L1742.6,99.46h-31.82l-41.52,21.88-41.52-21.88H1572L1641.39,136l-130.56,68.81L1380.26,136l69.38-36.56h-55.72l-41.52,21.88-41.52-21.88h-31.83l-41.52,21.88L1196,99.46h-55.72L1209.67,136l-130.56,68.81L919.58,120.76v29.36l131.67,69.39-29.57,15.58-102.1-53.8v29.36l74.23,39.13L919.58,288.9v29.37l102.1-53.81L1051.25,280,919.58,349.43V378.8l159.53-84.07,130.56,68.8-174.1,91.76h55.72l146.25-77.07,29.57,15.58-116.68,61.49h55.73L1295,408.48l88.81,46.81h55.73L1322.83,393.8l29.57-15.58h0l146.25,77.07H1523l146.24-77.07h0l29.57,15.58-96.79,51-19.88,10.48h55.72l88.81-46.8,88.82,46.8h55.72L1754.56,393.8l29.57-15.58,146.24,77.07h55.73L1812,363.54l130.56-68.81,154.76,81.55V346.92l-126.89-66.87L2000,264.46l97.32,51.29V286.38l-69.46-36.6,69.46-36.6V183.81L2000,235.1l-29.57-15.59Zm-313.19-1.94,130.57,68.81-29.57,15.58-130.57-68.8Zm73.14,99.08-130.57,68.8-130.56-68.8L1726.69,181ZM1726.69,120.44,1756.26,136l-29.57,15.58L1697.12,136Zm-57.43,30.26,29.57,15.59-130.57,68.8-29.57-15.58ZM1540.4,249.78l-29.57,15.58h0l-29.57-15.58,29.57-15.59ZM1483,219.51l-29.57,15.58-86.05-45.34-44.52-23.46,29.57-15.59Zm-57.43,30.27L1295,318.58l-130.57-68.8L1295,181ZM1295,120.44,1324.54,136,1295,151.6,1265.4,136Zm-57.43,30.26,29.57,15.59-83.26,43.87-47.31,24.93L1107,219.51Zm-188,99.08,29.57-15.59h0l29.57,15.59-29.57,15.58ZM1107,280l29.57-15.58,130.57,68.81-29.57,15.58Zm188,99.08-29.57-15.59L1295,348l29.57,15.58Zm57.43-30.27-29.57-15.58,130.57-68.81L1483,280Zm158.43,83.49-130.57-68.81,130.57-68.8,130.57,68.8ZM1538.69,280h0l29.57-15.58,130.57,68.81-29.57,15.58Zm188,99.08-29.57-15.59L1726.69,348l29.57,15.58Zm57.43-30.27-29.57-15.58,130.57-68.81L1914.69,280Zm188-99.07-29.57,15.58L1913,249.78l29.57-15.59Z"/><path class="cls-5" d="M145.6,414.66l59.11,38.44,57.18,2.13-21.2-13.55-95.33-51.79,28.1-14.81h0c42.81,22.56,102.78,58.1,146.08,80.92h24.55c43.94-23.16,103.49-58.39,146.23-80.92h0l29.57,15.59c-40.63,21.41-93.72,53.05-117,65.33H458.8l88.95-50.65,88.82,49.8h55.72L575.62,390.67l29.57-15.59,146.24,80.07h55.73L633.05,360.4l130.56-68.81c20.16,10.62,136,76.39,155.82,86.85V349.07L791.48,276.91l29.57-15.58,98.38,57.58V289.54l-70.52-42.9,70.52-36.31V181c-19.94,10.52-77.41,39.95-98.38,51l-29.57-15.58,128-65.58V121.43L763.61,201.69l-130.56-68.8L702,100.17l-55,.22L605.19,118.2l-42.05-17.81-31.85.22-41,17.59-40-17.59-57-.44,69.09,32.72L331.9,201.69l-130.57-68.8L271,100.17H215.27l-41.8,18-27.86-14m0,87.27,101,55.14-101,56.88ZM304,216.38,274.46,232,146.77,161.63l26.69-14.06Zm27.87,14.68,29.57,15.58L331.9,262.23h0l-29.57-15.59Zm158.42-83.49,29.57,15.58-44.52,23.47-86,45.34-29.57-15.58Zm57.43,30.26,130.57,68.81L547.75,315.45,417.19,246.64Zm29.57-45-29.57,15.59-29.57-15.59,29.57-15.58Zm158.43,83.5L706.18,232,658.87,207l-83.26-43.88,29.57-15.58Zm27.86,45.85L734,246.64l29.57-15.58h0l29.57,15.58ZM605.19,345.72l-29.57-15.59,130.56-68.8,29.57,15.58Zm-87,14.68,29.57-15.58,29.57,15.58L547.75,376ZM359.76,276.91l29.57-15.59,130.56,68.81-29.57,15.59ZM201.33,360.4l130.56-68.81L462.46,360.4,331.89,429.21Zm-27.86-14.68-26-13.7,127-70.69L304,276.91h0Z"/></g></g></svg>