<svg xmlns="http://www.w3.org/2000/svg" viewBox="0 0 46.76 37.14"><defs><style>.cls-1{fill:#5b5f6e;}.cls-2{fill:#494b59;}.cls-3{fill:#b5a38d;}.cls-4{fill:#464856;}.cls-5{fill:#717586;}.cls-6{fill:#a3aabd;}</style></defs><title>Fichier 2@9x-88</title><g id="Calque_2" data-name="Calque 2"><g id="Calque_1-2" data-name="Calque 1"><path class="cls-1" d="M28.8,0a13,13,0,0,1,4.8.94.62.62,0,0,1,.3.23c9.33,15.25.6,31.13-17.65,32-1.44.22-2.2-.77-3-1.71a29.45,29.45,0,0,1-2.51-4.23A19.52,19.52,0,0,1,9.1,20.7a15.27,15.27,0,0,1,.05-3.53c.93-2.46,1-3.8,2.64-7.12,0-.08.14-.11.18-.19C15.41,2.93,21.42.35,28.75,0Z"/><path class="cls-2" d="M13.27,9.83c-1.38,2.2-1.13,5.11-3.08,7.06-.51.4-1.21,1.65-1.78.1C8.22,13.33,7.58,9.35,13.27,9.83Z"/><path class="cls-3" d="M3,9.41a5,5,0,0,1-.16,1.9,1.19,1.19,0,0,1-2.11.17A4.72,4.72,0,0,1,0,8.76,1.18,1.18,0,0,1,.81,7.6c.88-.26,1.45.39,2,1.14A1.16,1.16,0,0,1,3,9.41Z"/><path class="cls-3" d="M5.3,12.45c-1.23-.16-1.22-1-1.23-1.87,0-.64.27-1.45,1.09-1.13.42.17.7,1,.82,1.55S6.22,12.3,5.3,12.45Z"/><path class="cls-3" d="M3,9.7l-3-1c0-1,.26-2,1.5-1.86C3.42,7,2.82,8.57,3,9.7Z"/><path class="cls-4" d="M14.87,32.94c3.94-1,9.21-1.7,12.91-4A19.09,19.09,0,0,0,34.93,5.35C34.37,4,32.51,2.87,33.79,1,43.3,3.35,48.4,13.77,46.29,23.13S37,37.8,25,37.08l-.17,0a21.55,21.55,0,0,1-2.9-.61A53.7,53.7,0,0,1,16.81,34,10.89,10.89,0,0,1,14.87,32.94Z"/><path class="cls-5" d="M19.16,10a2.72,2.72,0,0,1,.23,2.83,2.42,2.42,0,0,1-1.9,1.49A2.11,2.11,0,0,1,15,12c0-1.48.58-2.59,2.14-2.79A2.1,2.1,0,0,1,19.16,10Z"/><path class="cls-6" d="M14.32,16a1.35,1.35,0,0,1,1.42,1.67,1.2,1.2,0,0,1-1.32,1.16,1.45,1.45,0,0,1-1.37-1.69C13.1,16.27,13.5,16,14.32,16Z"/></g></g></svg>