<svg xmlns="http://www.w3.org/2000/svg" viewBox="0 0 63.64 57.94"><defs><style>.cls-1{fill:#eba746;}.cls-2{fill:#dc993c;}.cls-3{fill:#eee1a1;}.cls-4{fill:#e4d48b;}.cls-5{fill:#77b45f;}.cls-6{fill:#e5d48b;}.cls-7{fill:#f2d46a;}.cls-8{fill:#e4c756;}</style></defs><title>Fichier 1@9x-8</title><g id="Calque_2" data-name="Calque 2"><g id="Calque_1-2" data-name="Calque 1"><path class="cls-1" d="M49.8,31.56c-.93.91-1.71,2.06-2.64,3-.31-.07-.81-.05-.92-.23-3.61-6.49-8.42-11.71-15.3-14.83-.29-.13-.3-.88-.44-1.34A22,22,0,0,0,37.69,9.5c.18-.56.37-1.12.56-1.69,1-2.76.58-7.15,3.57-7.22,2.3,0,2.12,3.49,3.24,6.84a4.2,4.2,0,0,0,.2.64c.8,2.13,1.9,3.67,4.86,7.35,2.77,3.21,6.43,4.94,10.37,6.22,1.17.38,3.06.12,3.15,1.72s-1.78,1.58-3,1.9A21.7,21.7,0,0,0,49.8,31.56Z"/><path class="cls-2" d="M30.5,18.12c.14.46.15,1.21.44,1.34,6.88,3.12,11.69,8.34,15.3,14.83.11.18.61.16.92.23a67.14,67.14,0,0,0-4,10.46c-.21.84-.57,1.68-1.47,1.7s-1.2-.84-1.41-1.69C37.7,34.9,32.08,27.68,21.45,25.21c-1-.23-1.9-.85-1.78-2,.1-.91,1-1.08,1.79-1.39C24.5,20.65,27.49,19.36,30.5,18.12Z"/><path class="cls-3" d="M13.52,43.41l4.12-6c2,3.07,3.56,6.06,6.72,7.64,1.54.77.71,1.75-.42,2.51-1.47,1-2.85,2.11-4.27,3.17C19.42,46.74,17.14,44.5,13.52,43.41Z"/><path class="cls-4" d="M13.52,43.41c3.62,1.09,5.9,3.33,6.15,7.27-.18,1.94-.69,3.6-3.11,3.65h0l-.93-1.08.08,0a6.12,6.12,0,0,0-3.17-4.65C8.07,45.91,9.63,44.46,13.52,43.41Z"/><path class="cls-5" d="M15.64,53.25l.93,1.08Z"/><path class="cls-3" d="M21.69,50.26c-.47.45-.86,1-1.34,1.5-.16,0-.41,0-.46-.12a16.8,16.8,0,0,0-7.78-7.53c-.15-.07-.15-.45-.22-.68A11.15,11.15,0,0,0,15.54,39l.28-.85c.53-1.41.3-3.64,1.82-3.67,1.17,0,1.08,1.77,1.65,3.47a1.88,1.88,0,0,0,.09.33,13.44,13.44,0,0,0,2.48,3.73,11.11,11.11,0,0,0,5.26,3.16c.6.2,1.56.06,1.6.88s-.9.8-1.51,1A11.05,11.05,0,0,0,21.69,50.26Z"/><path class="cls-6" d="M11.89,43.43c.07.23.07.61.22.68a16.8,16.8,0,0,1,7.78,7.53c.05.09.3.08.46.12a33.71,33.71,0,0,0-2,5.31c-.11.43-.29.85-.75.87s-.6-.43-.71-.86c-1.32-5.13-4.17-8.8-9.57-10-.51-.12-1-.43-.9-1s.5-.55.9-.71C8.84,44.71,10.36,44.06,11.89,43.43Z"/><path class="cls-7" d="M8.75,9c-.27.26-.5.6-.77.86-.09,0-.23,0-.27-.07a9.54,9.54,0,0,0-4.44-4.3c-.08,0-.08-.26-.12-.39A6.32,6.32,0,0,0,5.23,2.58l.16-.48c.3-.81.17-2.08,1-2.1.67,0,.62,1,.94,2a1.3,1.3,0,0,0,.06.19A7.42,7.42,0,0,0,8.84,4.3a6.4,6.4,0,0,0,3,1.81c.34.11.89,0,.91.5s-.51.46-.86.55A6.22,6.22,0,0,0,8.75,9Z"/><path class="cls-8" d="M3.15,5.09c0,.13,0,.35.12.39a9.54,9.54,0,0,1,4.44,4.3c0,.05.18.05.27.07a19.59,19.59,0,0,0-1.16,3c-.06.25-.17.49-.43.5s-.34-.25-.41-.49C5.23,10,3.6,7.86.52,7.15.23,7.08,0,6.9,0,6.56s.29-.31.52-.4C1.4,5.82,2.27,5.45,3.15,5.09Z"/></g></g></svg>