<svg xmlns="http://www.w3.org/2000/svg" viewBox="0 0 535.59 306.71"><defs><style>.cls-1{fill:#6d5571;}.cls-2{fill:#169f85;}.cls-3{fill:#f29b11;}.cls-4{fill:#6e5472;}.cls-5{fill:#6e5572;}.cls-6{fill:#9aba56;}.cls-7{fill:#c27d0e;}.cls-8{fill:#58455b;}.cls-9{fill:#7b9547;}.cls-10{fill:#13806b;}.cls-11{fill:#c27c0e;}.cls-12{fill:#f29c10;}.cls-13{fill:#6c596f;}.cls-14{fill:#c78004;}.cls-15{fill:#fefdfd;}.cls-16{fill:#67576b;}.cls-17{fill:#483d4a;}.cls-18{fill:#5c4e5e;}.cls-19{fill:#fdfdfd;}.cls-20{fill:#12a183;}.cls-21{fill:#1b9b82;}.cls-22{fill:#0e9c7b;}.cls-23{fill:#fdfefd;}.cls-24{fill:#9bb85c;}.cls-25{fill:#ed9a17;}.cls-26{fill:#eba008;}.cls-27{fill:#fc9128;}.cls-28{fill:#fefefd;}.cls-29{fill:#f6e7ac;}.cls-30{fill:#ed9b16;}.cls-31{fill:#be7201;}.cls-32{fill:#f39101;}.cls-33{fill:#eb9f09;}.cls-34{fill:#e99a19;}.cls-35{fill:#fefefe;}.cls-36{fill:#69586b;}.cls-37{fill:#fbfcf6;}.cls-38{fill:#f0a130;}.cls-39{fill:#7b9645;}.cls-40{fill:#9ab95d;}.cls-41{fill:#9db961;}.cls-42{fill:#9bb95d;}.cls-43{fill:#c9872d;}.cls-44{fill:#c1881b;}.cls-45{fill:#bb7f06;}.cls-46{fill:#8e9475;}.cls-47{fill:#186756;}.cls-48{fill:#12816b;}.cls-49{fill:#f5fef0;}.cls-50{fill:#fefeeb;}.cls-51{fill:#fefeea;}.cls-52{fill:#58465b;}.cls-53{fill:#c0872a;}.cls-54{fill:#7e954c;}.cls-55{fill:#7e9831;}</style></defs><title>homeFichier 3@9x-8</title><g id="Calque_2" data-name="Calque 2"><g id="Capa_1" data-name="Capa 1"><path class="cls-1" d="M216.26,305.93l-70.77.27c-3.64,0-7.28.12-10.92.18a9.07,9.07,0,0,1-.83-4.35c0-21.07-.12-42.13.08-63.2-.23-19.58-.08-39.17-.1-58.75,0-2.79-.36-5.69,1.48-8.16q62.33-.1,124.64-.12c3.09,0,6.23-1.15,9.32.1.83,2.4.67,4.89.62,7.36-.24,14,.54,28.06-.39,42.06-1.4,3.64-3.57,2.15-5.39.6-5.56-4.72-11-9.58-16.46-14.42a92.33,92.33,0,0,0-7.62-6.36c-1-.81-2.4-1.21-2.92-2.56a14.21,14.21,0,0,0-9.27.77,8.47,8.47,0,0,0-4.17,5.8c-1.68,6.36-4.2,12.45-5.81,18.83-.47,1.87-.88,3.89-2.63,5.16-2,.4-2.92-1.23-4.14-2.23-8.92-7.33-17.54-15-26-22.83-.83-.77-1.32-2.48-3.09-1.77-1.49-.37-1.83-1.74-2.5-2.83-3.75-2.52-8.08-.3-12-1.47-.12.41-1.47-1.45-.79.44-1.44,2.83-1.3,5.59-.28,8.6,7.88,23.2,15.82,46.38,23.46,69.66a15.09,15.09,0,0,0,3.9,6.81c.67.68,1.36,1.34,2.06,2,5.36,5.31,11.41,9.86,16.75,15.17C214,302.18,216.47,303.14,216.26,305.93Z"/><path class="cls-2" d="M134.35.52,265.69.46a10.94,10.94,0,0,1,1.48.2c2,.84,2.48,2.62,2.46,4.49-.23,23.18.39,46.37-.29,69.54-.81,2.69-2.54,2-4.18,1a25,25,0,0,1-7.42-7c-2.11-4.8-6.76-7.34-10.32-10.73-1.75-1.66-3.35-4.54-6.46-4.74a4.24,4.24,0,0,1-1.14-.79c-1.45-2.83-4-4.15-6.87-5.18-5.44-2.82-9.71-7.13-14.18-11.18-2.05-1.86-3.86-4-6.5-5.11-6.18-3.83-12.9-2.15-19.43-1.72-2.44.17-3.12,2.73-3.82,4.79-7.21,21.05-14.88,41.94-22,63-1.07,3.15-2.37,6.21-3.3,9.4-.86,3,.21,4.36,3.34,4.46,3,.09,6-.54,8.86.78,1.54,2.57-.9,2.3-2,2.6-2.17.57-4.45,0-6.68,0,8.63,4.63,16.18,10.23,21.11,18.8l-54,.16c-2-2.23-1.52-5-1.52-7.6q-.09-27.15,0-54.3a54.87,54.87,0,0,0-.7-9.92c-.66-18.29-.22-36.59-.24-54.89,0-1.94-.08-4.08,2.05-5.27,2,1.7,4.41,1.19,6.7,1.19q56.18,0,112.36,0-55.67,0-111.31,0c-2.15,0-4.34.32-6.44-.43A1.22,1.22,0,0,1,134.35.52Z"/><path class="cls-3" d="M403,.37q63.92,0,127.83-.14c2.7,0,4.5.44,4.47,3.71-.15,19.46-.22,38.91-.32,58.36a1.24,1.24,0,0,1-1.38.13c-6.06-4.89-12.79-9-17.46-15.51-.79-3.14-3.5-4.32-5.95-5.76a6.25,6.25,0,0,1-1.07-.85c-1.59-2.22-3.73-4-4.8-6.65s-3.88-1.75-6-2.27c-1.32-.12-2.27-2.2-3.92-.75a3.15,3.15,0,0,1-1.51-4.11,1.89,1.89,0,0,0,.54-1.32c0-1.64-1.13-1.78-2.35-1.8.81.29,1.77.49,2.07,1.38.48,1.42-.54,2.07-1.62,2.63-11,1.22-21.94.38-32.9.52-13,.16-13.07,0-13.07,13.05q0,29.91,0,59.83c0,3.66-.14,7.39,2.8,10.25,6.69,6.48,14,12.28,20.93,18.46,2.44,2.16,5.43,2.26,8.46,2.26,16.13,0,32.26-.06,48.39.06,2.27,0,5.11-1,6.55,2-27.1.06-54.2.17-81.3.17-16.46,0-32.91-.15-49.37-.24-1.85-1.87-1.58-4.29-1.58-6.57,0-27.53-.1-55.07,0-82.6.15-11.14-.2-22.28.12-33.41,0-.93.05-1.86.05-2.79C401,5.63,399.33,2.21,403,.37Z"/><path class="cls-3" d="M268.26,223q.09-22.9.21-45.79c0-1.79-.5-3.67.69-5.32l130.65,0c1.57,1.3,1.82,3.12,1.83,5,.11,17.58.14,35.17,0,52.76a9,9,0,0,1-.64,3.4c-1,1.64-2.12,1.75-3.43.39-1.82-4-5.37-6.31-8.55-9-2.89-4.43-8.13-6-11.71-9.58a7.33,7.33,0,0,1-1-.88c-2.2-2.59-5-4.66-6.23-8.09-1.11-3.07-4.28-2.46-6.77-3-1.28.24-1.89-2.91-3.56-.68-1.87-.83-2.09-2.42-2-4.18,2-3.28-.42-3-1.33-3,0,0,1.53.13,1.56,1.22.07,2-1.89,1.72-3.24,2.05-12.12.15-24.23,0-36.34.08-1.64,0-3.32-.33-4.89.41a8.26,8.26,0,0,0-2.54,3.91c-.69,2.63-.34,5.31-.35,8q0,32.44,0,64.89c0,2.66-.22,5.38,1.87,7.51a14.19,14.19,0,0,1,1.35,1.08c.84.78,1.69,1.53,2.55,2.29,5.29,4,10.12,8.64,15,13.12a17.11,17.11,0,0,0,12.55,4.89c15.8-.21,31.62-.14,47.43,0,2.25,0,5.1-1,6.5,2-18.43.07-36.85.19-55.27.19-24.57,0-49.14-.07-73.71-.11-1.76-1.56-1.27-3.66-1.27-5.6,0-24.73.22-49.47-.15-74.2C267.43,225.47,267.32,224.13,268.26,223Z"/><path class="cls-4" d="M400.1,234.09c.12-20.71.68-41.43-.29-62.14,17.77-.07,35.55-.17,53.33-.19,25.09,0,50.19,0,75.28,0,2.84,0,5-.2,5,4-.24,22.74-.2,45.48-.25,68.23-3.27.18-4.71-2.57-6.7-4.33q-16.28-14.43-33.13-28.17c-3.12-3.42-7.13-5.9-10.14-9.46a17.61,17.61,0,0,0-8.95-2.54c-11.11-.16-22.22.41-33.32-.32-2.43-.16-3.79.68-3.71,3.34.76,24.17-.39,48.36.62,72.53.58,3,.34,6.31,2.49,8.92,4.75,6,11.49,9.86,16.77,15.29,2,2,5.29,3,4.94,6.75a57,57,0,0,1-12,0c-1.17-1.21-2.7-1.09-4.18-1.09q-19.8,0-39.62,0c-1.48,0-3-.12-4.17,1.1l-1.84.54c-2-1.8-1.74-4.22-1.75-6.52q-.08-29.64,0-59.3C398.49,238.38,398.29,236,400.1,234.09Z"/><path class="cls-5" d="M134.35.52c0,.32,0,.64,0,1l0,0C132.82,3,133.51,5,133.5,6.71q-.1,27.33-.09,54.68c-2.54.89-4.06-.91-5.51-2.36-8.4-8.4-18.43-14.94-26.67-23.51-.07-.07-.57.1-.9-.05-9.2-8.13-20.5-9.38-31.83-8.4-29.43,2.55-41,26.68-38.22,50,1.68,14.23,8.43,24.48,20.19,32,4.38,5.73,10.43,9.63,15.72,14.36,3.19,2.85,7.55,4.86,8.19,9.87-23.79.09-47.58.14-71.38.35-2.69,0-3-1.09-2.93-3.23.1-3.15,0-6.32,0-9.48C.1,82.68.18,44.42,0,6.17,0,1.45,1.15,0,6.07,0,47.19.2,88.3.11,129.42.13,131.06.13,132.71.39,134.35.52Z"/><path class="cls-3" d="M135.2,171.92c.65,22.37.35,44.75.15,67.13-3.67-.13-5.69-3-8.13-5.05-8.16-7-16-14.37-24.37-21.07-4.25-3.47-7.62-8.06-12.9-10.24-3.82-1.57-7.59-3.33-11.85-3.32a22.57,22.57,0,0,1-4.57-.38,17.8,17.8,0,0,0-9.71,0,17.22,17.22,0,0,1-3,.27,11.14,11.14,0,0,0-6,1.34,10.17,10.17,0,0,1-1.29.51,31.22,31.22,0,0,0-15.27,11.37c-1.64,1.88-2.54,4.35-4.66,5.85-2.11,0-2.33,1-1.55,2.69a4.43,4.43,0,0,1-.17,1.3c-.8,2.25-2.32,4.34-1.42,6.94,1,6.6-.85,13.08-.23,19.81,1.2,13,6,23.65,16.22,31.76,6.78,6.07,13.29,12.45,20.3,18.27,1.75,2.29,4.92,3.4,5.55,6.63l-5.92.09c-1.23-1.11-2.76-1-4.25-1q-27.67,0-55.37,0c-1.49,0-3-.12-4.31.86-1.65-1.29-.8-3.09-.81-4.62,0-41.41,0-82.82-.11-124.22,0-3.73.68-5.13,4.84-5.11C49.33,172,92.26,171.9,135.2,171.92Z"/><path class="cls-6" d="M403,.37c-1.67,2.54-.4,5.41-.94,8.08-2.07,1.56-4.49,1-6.76,1q-56.35.06-112.71,0,56.36,0,112.72,0c2.27,0,4.68-.6,6.75,1q0,17,0,34c-5.63-.95-8.46-6-12.79-8.81-1.78-1.16-3.3-2.76-5-4.06-2.21-2.85-5.12-3.83-8.72-3.88-15.87-.23-16.25,0-21.94,15-2,5.39-3.17,11.17-6.72,15.93a2.79,2.79,0,0,1-2.81-.45,185.33,185.33,0,0,1-24.3-20.89c-.33-.92-.52-2-1.93-1.77-.91.16-1.83.35-2.27-.8a3.91,3.91,0,0,1,.15-2.22A7.43,7.43,0,0,1,318.55,29c-1.55.43-2.48.74-3.07.31-6-4.41-12.84-2.33-19.37-2.5a3.35,3.35,0,0,0-1,0c-2.66.7-5.57-2.44-8,.19-2.83,3.12-2.15,7.27-2,11,.86,23.26.41,46.52.13,69.78,0,3.19.66,5,3.45,6.23,8,4.11,13.8,11,20.64,16.55a2.3,2.3,0,0,1,.8,2.66c-14,.21-28.06.51-42.08-.17-1.52-1.61-1.45-3.67-1.46-5.64q-.11-23,0-45.92c0-1.82-.05-3.68,1.08-5.28.12-13.43.27-26.86.34-40.29.05-10,0-19.91,0-29.87,0-1.82.19-3.66-.85-5.31,3.48-.09,7-.27,10.45-.27q58.8,0,117.62,0Z"/><path class="cls-7" d="M494.88,30.44c1-3.45,2.06.41,3.08,0,5.16,1.94,8,6.73,12,10h0a39.05,39.05,0,0,1,7,6C522.11,52.7,529,57,535,62.3c.92,1.9.5,3.92.51,5.88q.07,31,0,62.1c0,1.89.68,4.37-2.8,3.6-1.67-1.14-3.56-.58-5.34-.59-17.13,0-34.26-.08-51.39,0a10.8,10.8,0,0,1-8.07-3c-6.53-6.1-13.28-12-19.94-17.91,1.95-2.17,4.58-1.67,7-1.69,10.81-.09,21.63.06,32.44-.08,5-.06,6.31-1.76,5.85-6.35-.34-3.49-2.54-4.34-5.49-4.41-6.65-.15-13.31,0-20-.09-7-.11-8-1.1-8.31-8.11a112.52,112.52,0,0,1,0-11.47c.34-5.53,1.86-7,7.3-7.3,6.81-.43,13.64.2,20.43-.43,4.18-1.83,2.17-5.43,2-8.2-.16-2.92-2.94-2.56-5.07-2.58-5.12,0-10.25,0-15.38,0-6.44-.07-7-.65-7.29-6.92,0-.65-.24-1.3-.27-2,.67-4,.23-8,1.08-12a2.55,2.55,0,0,1,1.15-1.21c5.7-1.48,11.54-.92,17.26-.63C487.74,39.38,493.66,39,494.88,30.44Z"/><path class="cls-7" d="M400.1,234.09q.07,36.21.14,72.41l-2.39,0c-1.65-1.19-3.54-.6-5.31-.61-16.92-.05-33.84-.12-50.76,0a12.45,12.45,0,0,1-9.38-3.48c-5.61-5.32-11.43-10.42-17.17-15.62,1.26-2.69,3.78-2.32,6-2.34,9.92-.09,19.84,0,29.76,0,2,0,4,.28,5.68-1.13,4.08-6.87,2-10.79-5.79-10.89-6.33-.09-12.66.14-19-.1-5.53-.2-7-1.75-7.24-7.31-.17-4.65-.08-9.31,0-14,.06-3.67,1.85-5.47,5.52-5.57,5.66-.14,11.32.06,17-.11,5.05-.15,6.32-1.43,6.33-5.6s-2.64-5.24-6.22-5.28c-5.16,0-10.32.14-15.47-.09-5.33-.23-6.84-1.72-7.12-6.91a78.74,78.74,0,0,1,0-9.47c.39-6.11,1.74-7.38,8.08-7.51,5.82-.12,11.65,0,17.47,0s8,.18,8.71-6.68a3,3,0,0,1,1-1.69c1-3.42,2.06.22,3.08-.06,5.54,3,9.23,8.12,14,12h0c3.69,3.33,7.87,6.08,11.34,9.65,3.31,2.67,6.59,5.39,9.63,8.38A2,2,0,0,0,400.1,234.09Z"/><path class="cls-8" d="M74.38,133.29c-5.66-7.72-14.19-12.3-20.73-19-1.13-1.16-3.93-1.32-3.08-4,3.75-.42,7.19,1.1,10.76,1.73a68.24,68.24,0,0,0,32.5-2.45c4.3-1.33,6.15-4,6.11-8.47-.08-9.47.07-19-.06-28.42-.07-5.62-1.19-6.69-6.82-6.76-7-.09-14,0-21,0-3.43,0-5.31,1.21-5.23,4.94.07,3.52,1.57,5.2,5.14,5.15,2.82,0,5.65,0,8.48.08,3.44.11,5.19,1.76,5.27,5.24.08,3.32.09,6.64,0,10-.08,6.52-1.88,8.49-8.39,9.36C60.79,102.74,49,94.66,45.73,78.19c-2.22-11.07-.62-21.67,7-30.49C61,38.13,76.1,36,90.11,41.78c1.84.76,3.6,1.73,5.43,2.52,2.74,1.19,4.06.2,4.33-2.68.19-2.1-.3-4.39,1.45-6.13,6.61,3.52,11.38,9.38,17.36,13.68,5.2,3.73,8.92,9.23,14.73,12.22,1.07,2,.78,4.19.78,6.33q0,32.75.08,65.51c-.44.2-.87.58-1.31.57q-27.81,0-55.64-.1A21.21,21.21,0,0,1,74.38,133.29Z"/><path class="cls-9" d="M385.22,31.38c6.35,3.42,10.85,9.21,16.87,13.06q0,44.69,0,89.37-30.06-.18-60.11-.35c-10.6-.08-21.2-.22-31.8-.32a174.14,174.14,0,0,0-20.93-17.89c-.61-.54-1.82-.42-2-1.22s.67-1.42,1.47-1.68c2.09-.65,4.26-.39,6.39-.43s4.06.08,4.82-2.42.69-5.25.69-7.9c0-15.73,0-31.47,0-47.21,0-2.47-.26-5,.82-7.35,1-1.51,2.06-.82,3.16-.19,4,5.48,5.26,12.15,7.44,18.36q6.69,19,13.2,38.17c2.36,7,7.12,9.3,14.32,7.12,2.65-.81,3.4-3,4.18-5.18q9.84-27.46,19.71-54.91c.91-2.54,1.22-7,4.13-6.55s1.93,4.71,1.95,7.36c.1,17.12,0,34.24.07,51.36,0,7.44,4.27,10.3,11.41,8,2-.65,2.4-2.1,2.55-3.81.19-2.32.09-4.65.09-7,0-20.44,0-40.89,0-61.33C383.69,36,383.1,33.37,385.22,31.38Z"/><path class="cls-8" d="M462,305.92c-6.14-7.21-13.83-12.7-20.88-18.9-.62-.55-2.12-.74-1.06-2.15,1.61-1.59,3.69-1.27,5.65-1.34,6.63-.25,6.9-.5,6.93-7.28,0-7-.07-13.95,0-20.93.09-5.85,1.25-6.79,7.2-6.73,6.14.07,10.34,3,13.12,8.32C476.56,263.71,479,271,482,278c2.11,4.91,11.17,7.69,15.68,4.87a2.46,2.46,0,0,0,1-3.45c-5-10.77-7.43-22.87-16.43-31.54-2.18-2.1-2.28-4.21.51-5.6,12.12-6,13.65-16.06,10.94-27.84-.26-1.14-.52-2.29.33-3.32,4.39.84,6.65,4.66,9.73,7.23,10,8.32,19.68,17,29.48,25.55,1,10.77.25,21.56.4,32.35.13,9,0,17.95,0,26.93,0,1.38.85,3.37-2.13,3.34-22.8-.19-45.59-.24-68.39-.35A3.81,3.81,0,0,1,462,305.92Z"/><path class="cls-10" d="M267.69,76.13q.18,25.68.37,51.35c0,1.83,0,3.66,0,5.49q-29.17.14-58.35.25c-7.15,0-14.3-.1-21.44-.15-6.54-7.34-14.52-13-22-19.44,3.29-1.24,6.91.83,10-1.28,1.6-5.54,3.72-10.92,5.38-16.45.48-1.6,1.28-3.15,3.39-3.13,8.06.3,16.12,0,24.18.14,2.29,0,4.62-.18,6.76.94,3.6,2.32,3.7,6.5,5.12,9.94,2.7,6.54,9,9.42,15.46,6.88,2.78-1.09,1.86-3.2,1.24-5-3.12-9.28-6.45-18.48-9.71-27.71-4.87-13.76-9.85-27.48-14.58-41.29-.68-2-1.78-4-.59-6.21,2.34-.18,3.49,1.62,4.86,3a110.12,110.12,0,0,0,15.48,13,39.36,39.36,0,0,1,7,6h0c6.46,4.8,12.79,9.75,18,15.95Z"/><path class="cls-8" d="M268.26,223a24.9,24.9,0,0,1,.68,7.4q0,38.1-.07,76.19-24.1-.11-48.2-.23c-1.47,0-2.94-.29-4.41-.44-6.55-7.15-14.95-12.35-21-20,2.38-2.24,5.35-1.1,8.06-1.42,2.43-.28,5,.69,7.29-.64,4.58-7.84,6.47-16.69,9.4-25.13,6.3-18.19,12.3-36.49,18.35-54.77.47-1.39.63-2.95,1.95-3.93,8.64,6.29,16.12,13.92,24.25,20.8C265.66,221.8,266.58,223,268.26,223Z"/><path class="cls-11" d="M66.41,299.87c-7.38-5.19-13.71-11.53-20-17.93,3.94-.89,7.44,1.06,11.16,1.68,10.69,1.77,21.18,1.64,31.09-3.56,9-4.7,14.49-12.16,17-21.74,3.59-13.82,3.73-27.6-1.85-41.08-.68-1.66-1.66-3.32-.93-5.25,6.09,2.82,10,8.35,15.16,12.32,6,4.61,11.57,9.8,17.32,14.74q.09,31.79.16,63.56a5.76,5.76,0,0,1-.94,3.77q-26.38-.09-52.77-.2c-2.81,0-5.61-.22-8.42-.33A12.31,12.31,0,0,0,66.41,299.87Z"/><path class="cls-12" d="M2.47,305.72c.46-2.43,2.41-1.84,4-1.85q28.08,0,56.15,0c1.58,0,3.49-.46,3.83,2C45.09,306.08,23.78,306.35,2.47,305.72Z"/><path class="cls-13" d="M402.08,306c.28-2.47,2.16-2.09,3.78-2.1h40.4c1.61,0,3.5-.38,3.79,2.09Q426.07,306.57,402.08,306Z"/><path class="cls-14" d="M66.41,299.87c5-1.15,6.56,1.76,7,6l-1.06-.08C70.24,303.91,67.82,302.39,66.41,299.87Z"/><path class="cls-15" d="M240.29,200c-.18,4.92-2.42,9.27-3.94,13.81-7.24,21.71-14.57,43.4-21.81,65.11-.75,2.24-1.46,4.39-3.52,5.77a53,53,0,0,1-17.72,0,8.85,8.85,0,0,1-4.08-5.3c-8.19-24.58-16.5-49.12-24.71-73.7-1-2.89-2.51-6.18,2.18-7.55,4.61-1,9.17-1.5,13.57.82l2,3c3,3.54,3.65,8.11,5,12.32,4.65,14.35,9,28.82,13.7,43.14.84,2.54,2,5.14,1.27,8,2.79-11,6.7-21.72,9.85-32.65.4-1.41.86-2.88,2.31-3.69,2.71-8.45,5.47-16.88,8.12-25.34.82-2.6,1.8-4.92,4.77-5.66a16,16,0,0,1,9.74,0Z"/><path class="cls-8" d="M214.4,229.19q-5.61,18.67-11.21,37.37l-1,0-19.95-64.49c1.45-2.7,2.38.15,2.87.57,7,6,13.91,12.14,20.65,18.45C208.66,223.8,212.5,225.47,214.4,229.19Z"/><path class="cls-16" d="M180.26,199.05c-4.47-1.1-9-.51-13.57-.82a3.12,3.12,0,0,1-1.26-.95c5-.18,10.09-.73,15.08.22C181.23,197.64,180.75,198.58,180.26,199.05Z"/><path class="cls-17" d="M193.3,284.78l17.72,0c.56,1.91-1,1.11-1.61,1.12-4.72.08-9.45.06-14.17.08C194.4,285.86,193.64,285.68,193.3,284.78Z"/><path class="cls-18" d="M237,198.15l-9.74,0c3.36-2.31,7.13-.66,10.68-1.08,0,0,.17.34.15.35C237.77,197.71,237.4,197.92,237,198.15Z"/><path class="cls-19" d="M184.33,93.49c-2.56,4.18-3.29,9-5,13.53-.74,2-1.44,3.94-3.14,5.33-3.32,0-6.65.14-10,.08-4.92-.09-5.64-1-4-5.77,4.37-12.89,8.87-25.73,13.37-38.57,4.18-11.9,8.56-23.73,12.58-35.68,1.29-3.86,3.58-5.26,7.38-5.15,3.49.09,7,0,10.48,0,2.77,0,5.28.6,6.84,3.2l25.53,73.05c.38,1.1.7,2.21,1.12,3.29,1.62,4.13.24,5.68-4.18,5.76-12.5.21-12.48.32-16.48-11.39-.68-2-1.56-4-2.35-5.92-1.45-1.91-3.54-1.41-5.48-1.45C202.14,93.6,193.23,94.15,184.33,93.49Z"/><path class="cls-20" d="M134.39,1.48h126.2c-.3,2.72-2,1.93-3.1,1.94q-59.61.06-119.23,0c-1.55,0-3.52.57-3.9-1.92Z"/><path class="cls-21" d="M258.22,68.33c-6.22-5.07-12.6-10-18-15.95,4.77-1.31,6.54,3.55,9.47,5.41,2.39,1.51,4.28,5,7.25,6.63C258.68,65.41,258,67,258.22,68.33Z"/><path class="cls-22" d="M206.93,26.41c-5,0-9.92,0-14.87,0-.88,0-2.39.32-1.88-1.29.58-1.83,1.42.08,2.16.08,4.93,0,9.87,0,14.8,0Z"/><path class="cls-21" d="M240.23,52.39c-3.38-.79-5-3.59-7-6C236.13,47.72,240.29,47.59,240.23,52.39Z"/><path class="cls-20" d="M264.1,1.64c1.26-.1,1.91.36,1.95,1.29A1.88,1.88,0,0,1,264.5,5c-1.05.19-1.37-.76-1.59-1.47C262.52,2.33,263.44,1.92,264.1,1.64Z"/><path class="cls-23" d="M494.88,30.44c-.09,9.89-.09,9.85-10.14,9.86-7.23,0-14.46.12-21.7.18C461.15,46.21,462,52.16,461.77,58c-.08,2.45,2,2.94,4.31,2.9,6.46-.1,12.93.13,19.38-.1,3.77-.13,5.14,1.63,5,5-.13,2.89.92,6-1.63,8.47-7.8.06-15.61.26-23.41.13-3-.05-4.16,1-4.08,4,.13,5.64.2,11.28.07,16.92-.06,2.66.94,3.38,3.49,3.34,8.13-.14,16.27.12,24.4-.14,5.9-.19,5.64,3.52,5.72,7.56s-.6,6.44-5.68,6.33c-13.78-.27-27.56,0-41.34.07-3.66-1.14-3.94-4.3-3.95-7.27q-.09-35.65.06-71.31c0-5.88,1.66-7.38,7.44-7.4,13.81-.05,27.62,0,41.43,0h0Z"/><path class="cls-24" d="M402.07,10.45H274.91v-2H402.07Z"/><path class="cls-25" d="M510,40.42c-4.65-2.55-8.23-6.38-12-10C506.25,28.61,506.65,36.27,510,40.42Z"/><path class="cls-26" d="M493,26.42c-.71-4-4.91-.49-6.62-3.35,2.81-.88,5.59-1.38,7.93.11,1.06.67-.3,2.34-1.29,3.25Z"/><path class="cls-25" d="M517,46.44c-3.32-.86-5-3.6-7-6C513.24,41.32,516.56,42.19,517,46.44Z"/><path class="cls-27" d="M438.22,26.43c.54.26,1.15.37,1.27.66.28.74-.27,1.17-.95,1.14a1.34,1.34,0,0,1-1-.72C437.5,27.26,438,26.85,438.22,26.43Z"/><path class="cls-28" d="M360,202.12c0,10,0,10-10.09,10-6.31,0-12.64.2-18.94-.08-3.59-.16-4.6,1.22-4.45,4.54a110.79,110.79,0,0,1-.08,11.95c-.22,3.43,1,4.74,4.49,4.62,6.31-.21,12.63.1,18.94-.07,5.73-.17,5.23,3.7,5.27,7.42s-.34,6.54-5.3,6.31c-6.46-.3-13,.07-19.43-.12-3.1-.08-4.06,1.09-4,4.05.19,5.47.25,11,.07,16.43-.11,3.16,1.18,3.94,4.11,3.87,7-.17,14-.05,20.93-.06,8.46,0,9.36,1,8.55,9.57a5.86,5.86,0,0,1-2,4.37c-15,.75-30,.71-45,.05l0-.3a6.4,6.4,0,0,1-3.47-6.13c0-25.54-.08-51.09.05-76.64a2.48,2.48,0,0,1,.37-.92l2.32-2.75c1.43-1.28,3.16-.64,4.73-.64,12.7-.06,25.4,0,38.1,0,.93.06,1.92-.2,2.69.59Z"/><path class="cls-29" d="M310.12,201c0,24.87,0,49.73-.07,74.6,0,3.5.67,6.54,3.12,9.09-4.93-.91-4.17-4.91-4.19-8.17-.09-17.63,0-35.26,0-52.89,0-5.82,0-11.64.06-17.46C309.06,204.39,308.52,202.44,310.12,201Z"/><path class="cls-30" d="M377.08,214a58.22,58.22,0,0,1-14-12c4.3-.24,8-.1,9.07,5.59C372.59,210.16,376.38,211.12,377.08,214Z"/><path class="cls-31" d="M313.14,285l45-.05c-1.5,1.59-3.44.93-5.19.94-10.64.06-21.27,0-31.9,0-2,0-4-.15-5.8,1Z"/><path class="cls-32" d="M356.13,198l-43.69.27c.47-2.56,2.47-1.1,3.57-1.11,13.37-.13,26.74-.08,40.12-.07.33.2.44.4.33.61S356.24,198,356.13,198Z"/><path class="cls-30" d="M388.07,224c-4-3-8.11-5.79-11-10,4.17,3.12,10.09,4.14,12,10C388.76,224.4,388.42,224.43,388.07,224Z"/><path class="cls-33" d="M356.13,198v-.91c.16,0,.37,0,.47-.1a3.69,3.69,0,0,0,.48-.61l-6.79-.63c3.25-2.57,6.41-2.07,9-1,1.28.5-.2,2.5-1.34,3.47Z"/><path class="cls-34" d="M388.07,224l1,0c4.14,1.41,6.89,4.36,8.95,8.07C394.06,230.2,391.14,227,388.07,224Z"/><path class="cls-27" d="M303.43,199.94l-.82-.87a3.5,3.5,0,0,1,1.05-.6c.21,0,.6.32.72.58C304.68,199.77,304.12,199.85,303.43,199.94Z"/><path class="cls-35" d="M493.94,211.13a28.16,28.16,0,0,1,1.44,18.94c-1.81,6.43-4.77,9.33-14.51,14.83,11.36,9.19,14,23.15,19.58,35.49,1.42,3.13-.52,4.32-3.28,4.43-3.48.14-7,0-10.46,0-3,0-4.25-1.92-5.27-4.43-3.05-7.51-6.16-15-9.43-22.43-2.52-5.76-7-8.44-13.41-8.38-3.17,0-4.37.74-4.28,4.13.24,8.29-.2,16.61.19,24.89.23,5.07-2.05,6.44-6.46,6.27-2.65-.1-5.31,0-8,0-4.55-1.77-2.46-5.89-3.19-9-.73-6.28-.26-12.58-.29-18.87-.09-17.09,0-34.18,0-51.28,0-6,1.25-7.25,7.33-7.14,10.61.19,21.24-.55,31.84.43a15.6,15.6,0,0,1,8.24,3.05A27.77,27.77,0,0,1,493.94,211.13Z"/><path class="cls-36" d="M484,202.05c-13.42-4.58-27.32-2.65-41.05-2.93-4.43-.09-5.9,2.81-5.88,6.94q.09,21.19,0,42.39c0,9.14-.1,18.27-.16,27.41-1.41-1.56-.8-3.48-.81-5.25,0-20.42-.1-40.85.05-61.27,0-3.69-2.27-8.06.58-11s6.89-.1,10.44-.23c9-.33,18,.21,26.91-.26,4-.21,7,2.71,11.09,2.06C486.15,199.79,484.64,201.4,484,202.05Z"/><path class="cls-15" d="M101.32,35.49c0,2.66.12,5.33,0,8-.21,3.58-1.74,4.71-5.15,2.72-9.23-5.36-19.19-7.83-29.7-5.36C54.68,43.61,48.64,52.12,47,63.53S46.58,86,56.07,94.12C63.38,100.37,72,100.8,81,98.32c2.26-.63,3.21-1.83,3.11-4.27-.18-4.49-.18-9,0-13.47.1-2.72-1-3.43-3.53-3.31-3.65.17-7.32,0-11,.07-4.74.09-4.25-3.37-4.17-6.28s-1.18-6.87,4-6.89c8.82,0,17.65,0,26.47,0,3.59,0,5.3,2,5.33,5.21.11,11.65.08,23.29,0,34.94,0,2.27-.91,4.31-3.22,5.18-15.06,5.68-30.31,6.59-45.76,1.66a8.68,8.68,0,0,1-1.69-1c-27-12.59-27.92-53.53-10.39-71.77C50.6,27.59,64,24.52,78.49,25.79a53.16,53.16,0,0,1,15.92,3.73C97.38,30.75,100,32.32,101.32,35.49Z"/><path class="cls-19" d="M102.87,212c8.27,16.48,8.85,33.5,2.63,50.61-5.38,14.82-17,21.87-32.27,23.23a59.46,59.46,0,0,1-26.81-3.89c-10.58-6.85-15.6-16.86-17.14-29.11-1.05-8.31-.27-16.52.36-24.76a16.89,16.89,0,0,1,1.85-6v0c.73-1.3.42-3.07,1.85-4,1.35-2,2.1-4.41,4.08-6,2.79,1,3.67-3.11,6.93-2.22,3.72,1,5.21-2.53,6.74-5.3.8-1.44,3.89-1.62,2.36-4.33a.77.77,0,0,1,.84-.17,6.54,6.54,0,0,1,4.39-.54,21.36,21.36,0,0,0,3.59,2.43c.57.61,1.7.93,1.14,2.14a2.91,2.91,0,0,1-1,.71,1.61,1.61,0,0,0,.78-.47c1.12-1.16.09-1.61-.67-2.16-.81-1-2.22-1.08-3.06-2-.68-1.12.21-1.47.93-1.9l3-.17c3.41,1.07,6.8-1.13,10.22-.06l4.76.19c1,3.38-1.81,2.49-3.4,3,10.72-.48,10.72-.48,10.79,4.64.52-2.48,1.34-4.65,4.69-3.75C95.92,203.69,99.27,208,102.87,212Z"/><path class="cls-12" d="M54,301.75c.23-2.47,2.7-1.31,2.86-3.92H1.9c2.23-2.37,3.78-1.94,5.11-1.94,16,0,31.9.05,47.85-.08,3,0,4.57.52,4,3.94C58.3,303.49,55.92,301.31,54,301.75Z"/><path class="cls-37" d="M53.44,200.15c.54,1.67,2.61,1.64,4.58,3.79-6.38-1.59-6.08,4.32-9.33,5.89-1.14.56-1.93,2.62-3.17,2-3.35-1.77-4.19-1-4,2.65.06,1.34-1.57,1.74-2-.19-.28-1.27-.68-2.17-2.1-2.26A28,28,0,0,1,53.44,200.15Z"/><path class="cls-12" d="M3.13,300.38H48.71v1H3.15Z"/><path class="cls-37" d="M90.47,202c-3.14,1-4.71,2.45-1.35,5.45-2.92,1.14-5.37-.89-4.89-2.39,1.41-4.34-1.6-2.83-3.24-3-3.63-.33-7.36.46-11.36-.63,2.57-3.2,7.13.91,8.76-3.29A19.65,19.65,0,0,1,90.47,202Z"/><path class="cls-37" d="M73.63,198c-2.67.49-5.36.87-8,1.53-1.51.38-2.1,0-2.24-1.47A15.83,15.83,0,0,1,73.63,198Z"/><path class="cls-38" d="M33.33,218a5.55,5.55,0,0,1-1.85,4,3.94,3.94,0,0,0-.48-1.39c-1-1.14-2.36-2.45-1-3.79C31.17,215.71,31.91,218.37,33.33,218Z"/><path class="cls-37" d="M60.39,198.18c-.32.62-.65,1.23-1,1.85h0L54.28,200A7.72,7.72,0,0,1,60.39,198.18Z"/><path class="cls-38" d="M31.49,222c-.2,2.14-.45,4.27-1.85,6C28.61,225.55,29.89,223.73,31.49,222Z"/><path class="cls-15" d="M302.12,46.36q-.09,29.3-.2,58.58c0,2.13.36,4.32-.76,6.33-4.46,2.81-9.35,1.31-14.05,1.23-2.19,0-2.5-1.94-2.49-4.06.16-21.55.06-43.1.1-64.66,0-3.79-.41-7.57,0-11.38.47-4.77,2.15-6.45,6.85-6.48s9.62,0,14.43-.05a9.81,9.81,0,0,1,10,7.61c.1.63.19,1.27.29,1.9,3.67,2.25,3.44,6.54,5.12,9.83A62.75,62.75,0,0,1,324,52.16c1.31,4.67,3.13,9.15,4.88,13.65.18.44.32.89.46,1.34,1.11,3.32,2.47,6.54,3.58,9.85.18.43.33.87.47,1.31.53,2,1.8,3.87,2,6.43a116.23,116.23,0,0,0,4.69-14c2.51-3.9,2.71-8.93,6.07-12.41,3.14-8,6.41-15.89,9.38-23.92,2-5.55,5.75-8.24,11.63-8.1,3.31.08,6.63.12,9.94,0,4-.16,6.7,1.4,8.2,5.08,0,24.94-.21,49.88,0,74.82.05,5.09-1.89,6.53-6.36,6.21-.83-.06-1.66,0-2.49,0-7.54-.06-7.95-.46-7.95-7.9q0-27.67,0-55.37V43.88c-2.1.76-2.05,2.39-2.5,3.64-7,19.69-14.3,39.31-20.94,59.13-2.17,6.5-6.67,5.65-11.45,5.8-4.46.14-7.33-1-8.94-5.82C318,86.78,311,67.08,304.13,47.32a8,8,0,0,1-1.53-3.11A1.67,1.67,0,0,1,302.12,46.36Z"/><path class="cls-39" d="M323,52.47l-6.68-17.09,1.85-1a3,3,0,0,1,2,2,289.64,289.64,0,0,0,25.89,21.94,60.05,60.05,0,0,1-4.95,13c-3.69,0-3.4,5-6.76,5.4a3.26,3.26,0,0,1-2.4-1.29c.77-5.49.77-5.49-3.66-8.08a.92.92,0,0,1-.21-.87c0-2.5-.16-4.86-1.75-7.09a10.2,10.2,0,0,1-1.85-6.56C324.79,48.77,322.94,54.61,323,52.47Z"/><path class="cls-40" d="M271.76,7.17V124.53h-1V7.17Z"/><path class="cls-41" d="M316,33.48c-2.83-5.25-7.36-7.32-13.16-7.14-3.16.1-6.32,0-9.47,0-5.91.1-8.11,2.23-8.12,8.18-.06,19.76,0,39.52,0,59.28,0,4.48.15,9-.05,13.45-.15,3.45,1.47,4.92,4.66,5,3.8.06,7.65.42,11.33-1-3.23,3.81-7.55,1.56-11.36,1.9-3.08.28-1.1,1.21-.57,2.08-3.7-1-6.43-2.11-5.35-7.33,1-4.78.3-9.92.3-14.89,0-15.61,0-31.22,0-46.82,0-5.22-.25-10.43-.4-15.65-.12-3.93,3.58-6.17,7.43-5.56a62.38,62.38,0,0,0,13.39.24c2.4-.15,4.21-1.12,6.76,1S318,29.09,322,29.25C318,28.32,317.91,32.15,316,33.48Z"/><path class="cls-42" d="M354.66,17.52c5-1.44,9.87-1.05,15.44-.88-1.7,2.59-4.05,1.09-5.52,2.68,2.56,2.58,6.35-.22,9.54,2.41-3.84,1.25-7.24.69-10.52.61C360,22.25,358.85,17.18,354.66,17.52Z"/><path class="cls-41" d="M320.18,36.39l-2-2C320.59,34.07,320.91,34.38,320.18,36.39Z"/><path class="cls-43" d="M488.83,74.27a22.67,22.67,0,0,0,.88-2.84c1.49-8.65.17-10.2-8.57-10.21-5.31,0-10.61-.12-15.91,0-3,.08-4.16-1-4-4.07.2-4.63.07-9.27.15-13.9,0-1.18-.53-2.88,1.69-2.79l0,.92c-1.1,3.59.07,7.35-.83,11-.14,1.69,3.94,2.79.43,5.29-1,.69,1.48,2.68,3.58,2.66,6.61-.05,13.22.1,19.82-.06,3.39-.08,5.21,1.45,4.88,4.62S492.87,71.9,488.83,74.27Z"/><path class="cls-44" d="M462.18,52.36c.26-3.66-1.12-7.43.83-11C463.38,45.1,463.53,48.79,462.18,52.36Z"/><path class="cls-45" d="M333.85,212.56c-1.92,2.56-1.21,5.94-4.66,5.69-1.95-.15-.45-1.79-.53-2.74C328.28,211.32,331.35,213.67,333.85,212.56Z"/><path class="cls-45" d="M329,220.35l4.06.9C331.51,221.88,330,222.34,329,220.35Z"/><path class="cls-46" d="M302.12,46.36a3.72,3.72,0,0,1,.34-3.29,6.38,6.38,0,0,1,1.67,4.25Z"/><path class="cls-47" d="M184.33,93.49c10-1.13,20.1-.19,30.15-.48,1.5,0,2,.94,2,2.23-5.29-1.82-10.76-.53-16.13-.95S189.6,95.27,184.33,93.49Z"/><path class="cls-48" d="M199.9,43.87c4,11.6,7.57,22.09,11.15,32.58.66,2,.39,3.15-2.13,3.11q-9-.14-18,0c-3,0-2.74-1.26-2-3.41C192.54,65.8,196,55.42,199.9,43.87Z"/><path class="cls-49" d="M468.23,70.69c-2,2.12-3.25,1.75-4.87,1C464.53,69.68,466,70.58,468.23,70.69Z"/><path class="cls-50" d="M450.21,35.87c-.94.07-1-.66-1.07-1.28s0-1.4.75-1.57c.93-.22,1,.63,1.06,1.24A1.39,1.39,0,0,1,450.21,35.87Z"/><path class="cls-51" d="M315.32,204.57a1.38,1.38,0,0,1,.74,1.61c-.08.61-.13,1.46-1.06,1.23-.73-.17-.83-.91-.74-1.57S314.37,204.49,315.32,204.57Z"/><path class="cls-52" d="M454.4,224.56c0-.66-.23-1.44,0-2,1.63-3.28-3.9-9.57,3.44-10.17,13.44-1.1,19.31,2.14,20.27,9.93.93,7.58-2.57,12.32-10.24,13.83C454.9,238.74,454.39,238.3,454.4,224.56Z"/><path class="cls-7" d="M62.21,212.67c16.29-3.63,26.23,3.4,28.33,19.65a58.42,58.42,0,0,1-.77,21.78C86.84,266,79.23,272,67.82,271.74c-10.91-.27-17.68-5.93-19.88-17.88-1.65-9-1.7-18.16.94-27.16,1.78-6.08,5.36-10.43,11.21-12.89C60.87,213.56,62.13,214.2,62.21,212.67Z"/><path class="cls-37" d="M63.41,204c-.69,3-2.68,1.72-5,1.77,1.56-2.48,3.46-1.5,5-1.77Z"/><path class="cls-37" d="M62.41,202c-1.46,0-2.91,0-3-2h0C60.86,200,62.31,200,62.41,202Z"/><path class="cls-37" d="M63.4,204l-1-2c.87.1,2.07-.3,2.44.76s-.75,1.05-1.44,1.24Z"/><path class="cls-53" d="M62.21,212.67c.12.89.59,2.43.31,2.58-1.3.7-1.35-1.32-2.43-1.44Z"/><path class="cls-54" d="M334.15,76.33c2.26-1.11,2.63-3.77,4.45-5.4,1.65-1.48,1.73.26,2.52.41-.93,5.38-3.56,10.14-5.49,15.85a31.13,31.13,0,0,1-3.32-8.9C332.92,77.64,333.23,76.7,334.15,76.33Z"/><path class="cls-54" d="M328.3,67.37c1.69.62,3.88-1.23,5.26,1.34,1.47,2.75-.12,4.61-1.39,6.65a1.48,1.48,0,0,1-.08,2.1A40.43,40.43,0,0,1,328.3,67.37Z"/><path class="cls-54" d="M323,52.47c.81.1,1.63-2.13,2-.63a35.51,35.51,0,0,0,4.19,10.7c.88,1.39-1.41,2.43-1.08,4A64.25,64.25,0,0,1,323,52.47Z"/><path class="cls-55" d="M332.09,77.46c0-.7.05-1.4.08-2.1a2,2,0,0,1,2,1,1.73,1.73,0,0,1-1.84,2A.93.93,0,0,1,332.09,77.46Z"/></g></g></svg>