<svg xmlns="http://www.w3.org/2000/svg" viewBox="0 0 1022.87 248.87"><defs><style>.cls-1{fill:#0280bc;}.cls-2{fill:#745472;}.cls-3{fill:#fd9801;}.cls-4{fill:#b0aba9;}.cls-5{fill:#cd7b02;}.cls-6{fill:#026798;}.cls-7{fill:#5d445d;}.cls-8{fill:#00a384;}.cls-9{fill:#d02a20;}.cls-10{fill:#a7221a;}.cls-11{fill:#03836b;}.cls-12{fill:#8f8a88;}.cls-13{fill:#f5fafa;}.cls-14{fill:#faf9f9;}.cls-15{fill:#fbfaf4;}.cls-16{fill:#fefefe;}</style></defs><title>Fichier 4@9x-8</title><g id="Calque_2" data-name="Calque 2"><g id="Capa_1" data-name="Capa 1"><path class="cls-1" d="M250.71,248.87c-.08-7-.23-13.91-.24-20.86q0-52.72,0-105.44,0-34.26-.08-68.53,0-26.56,0-53.12a.62.62,0,0,0,.25-.6c1.49-.09,3-.26,4.47-.26H501.9c1.33,0,2.65.13,4,.2q0,31.24-.05,62.48c-.19.36-.38.72-.56,1.09-7.49-5.15-13.45-12.15-20.83-17.38-5.59-4-9.17-10.5-16.22-12.56C465,27.06,459.33,23.48,452,22.13c-10.72-2-21.53-1.18-32.32-1.13-3.8,0-5.1,2.42-5.1,5.93q0,35.28,0,70.55c0,3,.93,5.16,3.93,6.12.07,2.06,2,2.45,3.2,3.46,5.75,4.89,11.89,9.35,16.77,15.2l-58.85.32c0-22.65-.06-45.3,0-67.95,0-2.82-.5-4.8-3.09-6.65-4-2.86-7.29-6.71-11.18-9.75-6-4.65-10.87-10.55-17.51-14.35-3.77-3.74-8.47-1.45-12.74-1.87-3-.3-4.79,1.31-6,4.14-2.19,5.15-4.74,10.14-7.14,15.2-6.45-5-13-9.88-18.25-16.22a2.68,2.68,0,0,0-2.59-1c-4.3-3.83-9.51-1.78-14.32-2.11-3.85-.27-4.61,1.84-3,5.06,2.18,4.28,4.26,8.61,6.55,12.82,10,18.48,20.37,36.86,16.39,59.19-.32,1.85.7,3.15,2,4.25-.38.36-.71.83-.13,1.18,4.7,2.84,8.68,6.56,12.72,10.23,5.6,5.1,11.5,8.48,19.85,8,12.76-.8,25.61-.17,38.42-.14-.06,1.81-.15,3.61-.16,5.42q-.12,23.19-.21,46.37c-.67.19-.6,1.76-2.12.39-10.3-9.19-20.81-18.15-31.24-27.19-4.1-2.53-8.59-1.95-13-1.53-2.94.27-4.14,1.9-4.1,5,.12,7.73-.09,15.46-.17,23.2L298.89,149c-.91,5.73.73,11.08-1,16.22-.09-3-.26-5.93-.28-8.9,0-10.27-2.29-12.17-12.64-10.39a25.62,25.62,0,0,0-4.2,1.48c-2.51.27-2,2.19-2,3.77q0,36.93,0,73.88c0,1.56-.55,3.48,1.89,3.91l5,2.85a72.78,72.78,0,0,0,9.32,9.34c2.68,2.43,6.86,3.49,7.76,7.71Z"/><path class="cls-2" d="M564.35,248.87H505.42q0-34.32,0-68.66,0-28.92,0-57.85c.12-.34.24-.69.35-1,.94,1.25,2.29,1.14,3.63,1.14l61.83-.15,63.92.1,1,.16c0,12.27,0,24.54-.12,36.81-.11,9.61.51,19.22-.38,28.81a4,4,0,0,1-2.76-.92c-8.9-7.88-17.84-15.71-26.72-23.61-2.67-2.38-5.16-5-8.49-6.48-4.24-5.93-10.35-8.64-17.31-9.67-10.57-1.58-21.23-.62-31.84-.84-6.25-.09-4.24,1.6-5.81,3.34-1.68,1.12-1.37,2.86-1.37,4.48q0,35.12,0,70.24c0,1.55-.56,3.42,1.6,4.2,1.44,1,3.53.92,4.35,2.82,0,1.34.94,1.92,1.83,2.69C554.45,239,560.19,243.12,564.35,248.87Z"/><path class="cls-3" d="M505.45,122.36q0,28.94,0,57.85a7.77,7.77,0,0,1-2.23-.89c-8-6.85-15.71-14-23.94-20.54-4.6-3.66-8.05-8.68-13.52-11.26-1.25-1.69-3.07-1.75-4.94-1.74-12.49.07-25,.23-37.45.15-4.87,0-7,2-7,6.84,0,23.55-.07,47.1,0,70.65,0,3,.49,6.08,4.2,7.06.52.6,1,1.2,1.57,1.79,5.38,6,12.61,10,17.42,16.6H379.56c0-8.61.09-17.23.05-25.84q-.11-24.34-.31-48.69.1-23.18.21-46.37c0-1.81.1-3.61.16-5.42l0,0,58.85-.32Z"/><path class="cls-3" d="M635.68,188.19c.89-9.59.27-19.2.38-28.81.13-12.27.09-24.54.12-36.81l49-.26H764l.21.39Q764.1,153,764,183.23c-5-3-8.78-7.41-13.36-10.87-5-3.79-8.64-9.39-15-11.39a.34.34,0,0,1,.35-.4,1.43,1.43,0,0,0-1.31-1.24c-8.85-12.31-21.74-15-35.7-14.38-13.47.59-24.31,6.25-31.12,18.25-4.2,7.39-5.63,15.59-5.7,23.93-.11,15.33,1.94,29.93,16.13,39.53,3,4.14,7.52,6.68,11,10.33,3.86,4.1,9.75,6.15,12,11.88H636.27c-.07-8.06-.08-16.12-.21-24.18C635.86,212.52,636.58,200.35,635.68,188.19Z"/><path class="cls-4" d="M56,122.2l-56,.27V.05H118.29c1.83,0,3.65.1,5.48.16q-.17,25.35-.32,50.69a17.1,17.1,0,0,1-2.52-1.5Q106.34,37.19,91.79,24.89c-5.85-4.65-15.15-3.62-19.47,2.21-2.45,3.28-4.83,6.61-7.24,9.92-4.85-3.76-8.91-8.51-14.42-11.44C47.34,21,42.45,22.18,38,22.33c-2.84.1-4.23,1.63-4.21,4.85q.18,35.94,0,71.88c0,2.53.78,4.13,3.27,4.75,0,1.93,1.64,2.62,2.84,3.72C45.25,112.43,51.53,116.34,56,122.2Z"/><path class="cls-5" d="M439.5,248.87c-4.81-6.57-12-10.63-17.42-16.6-.53-.59-1.05-1.19-1.57-1.79l3.23.13.27.15.27-.15q15.72-.77,31.44,0l.27.14.26-.14,2.51,0a4.07,4.07,0,0,0,3.43,0c6.74-1.05,3.79-6.29,4-9.86.23-3.76-3-3.75-5.71-3.75-7.64,0-15.29-.11-22.93.1-3.3.08-4.36-1-4.19-4.27.25-5.12.16-10.27-.05-15.39-.13-3.17.88-4.45,4.21-4.33,6.15.2,12.32-.27,18.44.13,4.78.31,5.65-2,5.55-5.91-.09-3.72.54-7.54-5.25-7.35-6.31.21-12.63-.08-18.95.05-3,.06-4.17-1-4-4.06a102.78,102.78,0,0,0,.05-12.41c-.23-3.48,1.32-4.21,4.38-4.15,6.48.15,13,0,19.45.06,8.95,0,9.93-1.06,8.84-10-.08-.66-.21-1.31-.31-2,5.47,2.58,8.92,7.6,13.52,11.26,8.23,6.53,16,13.69,23.94,20.54a7.77,7.77,0,0,0,2.23.89q0,34.33,0,68.66Z"/><path class="cls-6" d="M379.3,174.34q.17,24.35.31,48.69c0,8.61,0,17.23-.05,25.84H302.65c-.9-4.22-5.08-5.28-7.76-7.71a72.78,72.78,0,0,1-9.32-9.34c1.16-.08,2.32-.13,3.47-.24,7.82-.76,8.58-1.59,8.58-9.3,0-8,.16-15.92-.08-23.87-.1-3.53,1.1-4.56,4.56-4.46,7.64.23,15.3.21,22.95,0,3.15-.08,4,1.1,3.92,4-.16,7.3-.05,14.59-.05,21.89,0,11,.33,11.3,11.47,10.68l1.49-.1c3-.27,4.27-1.66,4.25-4.85-.15-26-.15-52.05-.19-78.08,10.43,9,20.94,18,31.24,27.19C378.7,176.1,378.63,174.53,379.3,174.34Z"/><path class="cls-7" d="M635.68,188.19c.9,12.16.18,24.33.38,36.5.13,8.06.14,16.12.21,24.18H564.35c-4.16-5.75-9.9-9.85-15.18-14.43-.89-.77-1.87-1.35-1.83-2.69,1.33-.06,2.65-.15,4-.16,7.32-.07,8.57-1.27,8.62-8.7s0-14.9,0-22.35c0-1.47-.68-3.22,2-3.67,7.57-1.25,11.68.41,15.06,7.47,3.14,6.56,5.75,13.38,8.51,20.12s12.15,9.59,18.41,5.41c1.64-1.1,1.5-2.53.86-3.92-5.56-11.94-8-25.61-19.13-34.52,15.33-8.44,18.93-18.84,12-34.25,3.33,1.51,5.82,4.1,8.49,6.48,8.88,7.9,17.82,15.73,26.72,23.61A4,4,0,0,0,635.68,188.19Z"/><path class="cls-5" d="M735.63,161c6.38,2,10,7.6,15,11.39,4.58,3.46,8.37,7.9,13.36,10.87q.06,32.82.11,65.64H701.2c-2.21-5.73-8.1-7.78-12-11.88-3.44-3.65-8-6.19-11-10.33a50.17,50.17,0,0,0,25.55,4.91c16.24-.87,28.38-8.13,33.82-23.8A61.34,61.34,0,0,0,735.63,161Z"/><path class="cls-8" d="M685.19,122.31l-49,.26-1-.16q0-12.15-.09-24.31Q635,73.56,634.79,49V3.85c.09-1.19.18-2.38.28-3.57C645.19.2,655.32.06,665.45.07q48.82,0,97.67.18,0,28.59,0,57.17c0,1.77-.57,3.67.73,5.28,0,1.65-.11,3.3-.16,5-2.32-.58-4.06-2.12-5.78-3.63-11.76-10.32-23.28-20.93-35.34-30.89-4-3.31-7-7.94-12.05-10-4.61-3.46-9.95-1.58-15-2.07-4.41-.42-7,1.19-8.5,5.65-8.16,24.11-16.55,48.15-25,72.17-1.19,3.39-.19,5,3.15,5.64.13.7-2.21,1.18-.33,1.89,1.16.45,2.6.07,3.72,1C674.24,112.34,680.32,116.65,685.19,122.31Z"/><path class="cls-2" d="M810,21.05c-1.44,0-3.87.1-5.87.15-2.31,1.72-3.11,4-3.1,6.85q.11,35.39,0,70.76c0,2.1.18,3.94,2.16,5.12,1.8,3.5,5.43,5.08,8,7.72,3.55,3.59,8.18,6.08,10.83,10.58q-25.76.12-51.5.23c-2.14,0-4.28.16-6.42.25l-.21-.39q-.11-27.33-.23-54.66c0-1.66.11-3.31.16-5q.09-31.23.17-62.46C785.18.18,806.3.07,827.42.06c22.46,0,44.91.09,67.36.14,0,7.45.08,14.9,0,22.35-.09,13.73-.24,27.46-.36,41.19a7.06,7.06,0,0,1-1.75-.83q-16.16-14-32.28-28.07c-.95-.82-1.79-2.88-3.48-.81-4-7.41-10.49-10.86-18.51-12.18a28.63,28.63,0,0,0-4.18-.78c-.66-.46-4.31,0-5-.05"/><path class="cls-3" d="M123.45,50.91q.15-25.35.32-50.69l126,.07a.89.89,0,0,0,.68.63q0,26.55,0,53.12c-.92,1.3-1.59.75-2.57-.11-6-5.22-12-10.36-18-15.54l-19-16.4-41.35-.23c-4.33,0-5.74,2.56-5.74,6.43,0,22.85-.1,45.69-.07,68.54,0,3,.43,6.08,4.2,7,.08,1.12,1,1.55,1.69,2.24,5.84,5.73,12.8,10.2,18.3,16.3l-64.07,0c0-6.77.07-13.55,0-20.32Q123.62,76.41,123.45,50.91Z"/><path class="cls-3" d="M634.79,3.85V49c-1.39,3.19.22,6.73-1.13,10.58-7.67-6.6-14.92-13-22.36-19.14-2.3-1.9-3.71-5.1-7.25-5.38l.19,0-1-1.15.07.08c0-1-.42-1.83-1.56-2-9.43-10.55-21.83-12.65-35-11.63-14.55,1.12-25.2,8.11-31.06,21.92A49.65,49.65,0,0,0,532,61.11c-.19,15.09,1.67,29.57,15.5,39.25.42,1.56,1.75,2.26,2.86,3.24,7,6.21,14.65,11.69,20.92,18.71l-61.83.15c-1.34,0-2.69.11-3.63-1.14q0-28.21,0-56.43a1.5,1.5,0,0,0,0-2.15q0-31.25.05-62.48C528.59.19,551.3.07,574,.07c20.06,0,40.12.14,60.18.22C634.4,1.48,633.88,2.78,634.79,3.85Z"/><path class="cls-9" d="M894.45,63.74c.12-13.73.27-27.46.36-41.19.05-7.45,0-14.9,0-22.35Q957.33.12,1019.87,0c2.51,0,3,.89,3,3.16-.13,19.2-.15,38.4-.21,57.6a11.3,11.3,0,0,1-2.57-1.31c-8-7.16-15.7-14.64-24.29-21.09-1.24-.93-1.67-3.43-4.1-2.36-9.06-12.38-21.93-16.38-36.56-16.48-6.64,0-13.29-.12-19.93-.08-6.46,0-7.66,1.07-7.69,7.49-.09,23.33,0,46.67,0,70,0,2.52.24,5,2.37,6.8.45,2.06,2.45,2.54,3.8,3.65,5.69,4.68,11.61,9.1,16.29,14.86l-55.14,0c0-7.61.13-15.22,0-22.83C894.67,87.54,895.37,75.63,894.45,63.74Z"/><path class="cls-7" d="M894.45,63.74c.92,11.89.22,23.8.39,35.7.1,7.61,0,15.22,0,22.83l-72.72,0c-2.65-4.5-7.28-7-10.83-10.58-2.62-2.64-6.25-4.22-8-7.72,3.47,1.48,7,.3,10.51.15,3-.14,4.44-2,4.35-5.33-.22-8.27,0-16.55-.13-24.82-.07-3,.83-4.08,3.93-4,6,.18,10.5,2.6,13,8.07,2.43,5.26,4.64,10.62,6.9,15.94,4.7,11.07,1.79,10.33,15.78,10.25,5.52,0,6.62-1.31,4.38-6.17-5.24-11.37-7.67-24.3-18.46-32.68C857.72,58.14,861.37,49.4,856.94,34c1.69-2.07,2.53,0,3.48.81q16.17,14,32.28,28.07A7.06,7.06,0,0,0,894.45,63.74Z"/><path class="cls-10" d="M991.7,36c2.43-1.07,2.86,1.43,4.1,2.36,8.59,6.45,16.3,13.93,24.29,21.09a11.3,11.3,0,0,0,2.57,1.31c.06,19.55.08,39.1.21,58.65,0,2.37-.68,3.1-3.08,3.09-23.28-.15-46.56-.18-69.84-.25-4.68-5.76-10.6-10.18-16.29-14.86-1.35-1.11-3.35-1.59-3.8-3.65,9.45,0,18.9.26,28.35.06,23.34-.48,37-13.33,39-36.5C998.13,56.4,996.7,45.88,991.7,36Z"/><path class="cls-11" d="M764.06.24q-.09,31.23-.17,62.46c-1.3-1.61-.73-3.51-.73-5.28q-.07-28.58,0-57.17A1.1,1.1,0,0,1,764.06.24Z"/><path class="cls-5" d="M634.79,3.85c-.91-1.07-.39-2.37-.59-3.56a1.24,1.24,0,0,1,.87,0C635,1.47,634.88,2.66,634.79,3.85Z"/><path class="cls-5" d="M250.41.92a.89.89,0,0,1-.68-.63,1.08,1.08,0,0,1,.93,0A.62.62,0,0,1,250.41.92Z"/><path class="cls-5" d="M210.74,22l19,16.4c6,5.18,12.07,10.32,18,15.54,1,.86,1.65,1.41,2.57.11q0,34.26.08,68.53l-62.67-.3c-5.5-6.1-12.46-10.57-18.3-16.3-.71-.69-1.61-1.12-1.69-2.24,12.79-.07,25.58-.28,38.37-.14,4.07,0,6.24-.85,6.17-5.38-.12-6.66-.64-7.58-6.11-7.61-7.48,0-15,0-22.43,0-2,0-3.58,0-3.51-2.81.13-5.45,0-10.92-.15-16.37-.1-3,1.14-4.06,4.13-4,5.81.17,11.65-.3,17.44.14,5.55.43,5.72-2.73,5.87-6.74.17-4.39-1.34-6.42-6-6.22-5.8.25-11.63-.06-17.44.09-3,.07-4.22-1-4-4a83.63,83.63,0,0,0,.18-11.41c-.25-3.45.81-4.69,4.35-4.56,6.48.23,13,.07,19.44.08,7.73,0,8.93-1.35,7.77-9A30.87,30.87,0,0,0,210.74,22Z"/><path class="cls-12" d="M123.45,50.91q.15,25.5.29,51c0,6.77,0,13.55,0,20.32-22.56.37-45.12.41-67.68,0-4.49-5.86-10.77-9.77-16.15-14.67-1.2-1.1-2.79-1.79-2.84-3.72,2,0,4-.07,6-.08,6.87-.06,7.09-.26,7.09-6.89,0-9.44,0-18.88,0-28.32,0-1.13-.85-2.65,1.14-3.6,1,1.49,2,3,3,4.48,6.24,9.78,12.61,19.48,18.63,29.39,2.27,3.73,5,5.46,9.35,5,1.8-.21,3.65,0,5.48-.07,5.38-.24,6.16-1.62,3.52-6.45C90,94.92,88.49,92.72,87,90.51c-6-9.13-12-18.28-18.18-27.32-1.65-2.4-1.83-4.07.19-6.46,4-4.81,7.88-9.84,11.46-15,3.83-5.55,9.2-10.1,11.3-16.82q14.56,12.27,29.14,24.52A17.1,17.1,0,0,0,123.45,50.91Z"/><path class="cls-6" d="M347.84,23.88c6.64,3.8,11.56,9.7,17.51,14.35,3.89,3,7.17,6.89,11.18,9.75,2.59,1.85,3.1,3.83,3.09,6.65-.05,22.65,0,45.3,0,67.95l0,0c-12.81,0-25.66-.66-38.42.14-8.35.52-14.25-2.86-19.85-8-4-3.67-8-7.39-12.72-10.23-.58-.35-.25-.82.14-1.17,3.14.06,6.29.11,9.43.2,3.86.11,5.76-1.35,5.58-5.56-.27-6.43.12-12.88-.14-19.31-.18-4.46,1.08-8.24,3.07-12.2C333.88,52.31,341.73,38.52,347.84,23.88Z"/><path class="cls-6" d="M505.81,64.89q0,28.22,0,56.43c-.11.35-.23.7-.35,1l-67-.1c-4.88-5.85-11-10.31-16.77-15.2-1.18-1-3.13-1.4-3.2-3.46,8.48-.06,16.95-.14,25.42-.15a38.82,38.82,0,0,0,18.66-4.53c8.44-4.5,11.87-11.72,11.62-20.87-.23-8.59-4.23-14.78-12.44-18-.85-.33-2-.44-2.1-1.72,9.34-6,11.28-11.61,8.54-24.44,7.05,2.06,10.63,8.59,16.22,12.56,7.38,5.23,13.34,12.23,20.83,17.38Z"/><path class="cls-13" d="M468.21,33.89c2.74,12.83.8,18.39-8.54,24.44.11,1.28,1.25,1.39,2.1,1.72,8.21,3.22,12.21,9.41,12.44,18,.25,9.15-3.18,16.37-11.62,20.87a38.82,38.82,0,0,1-18.66,4.53c-8.47,0-16.94.09-25.42.15-3-1-3.93-3.12-3.93-6.12q.09-35.28,0-70.55c0-3.51,1.3-5.91,5.1-5.93,10.79-.05,21.6-.87,32.32,1.13C459.33,23.48,465,27.06,468.21,33.89Zm-37.1,44.83h0c0,3,0,6,0,8.93,0,1.6.13,3.15,2.25,3,4.8-.26,9.65.6,14.39-.55,6.19-1.51,9.23-5.35,9.06-11.27s-3.64-9.87-9.59-11a54,54,0,0,0-7.43-.69c-8.62-.37-8.63-.34-8.65,8C431.1,76.4,431.11,77.56,431.11,78.72ZM431,44.32c0,11.65.5,12.1,12.12,10.44a4.13,4.13,0,0,0,.49-.07c4.28-1.32,7.81-3.39,8.58-8.32.62-4,.41-7.77-3.22-10.26-5.19-3.54-11.35-3.22-16.79-1.87-2.82.7-.65,5.63-1.17,8.6A9.13,9.13,0,0,0,431,44.32Z"/><path class="cls-13" d="M278.67,147.54c.71-2.2,4.84-2.7,6.28-2.95,10.35-1.79,12.6,1.46,12.63,11.73,0,3,.19,5.93.28,8.9-.06,3.47,0,6.95-.24,10.41-.21,2.88.9,3.71,3.7,3.65,7.64-.15,15.29-.31,22.91.05,4.3.21,5.4-1.3,4.42-5.11.08-7.74.29-15.47.17-23.2,0-3.11,1.16-4.74,4.1-5,4.43-.42,8.92-1,13,1.53,0,26,0,52.06.19,78.08,0,3.19-1.29,4.58-4.25,4.85l-1.49.1c-11.14.62-11.47.31-11.47-10.68,0-7.3-.11-14.59.05-21.89.07-2.94-.77-4.12-3.92-4-7.65.2-15.31.22-22.95,0-3.46-.1-4.66.93-4.56,4.46.24,8,.08,15.91.08,23.87,0,7.71-.76,8.54-8.58,9.3-1.15.11-2.31.16-3.47.24-1.65-.95-6.5,1-7.51-3.69"/><path class="cls-13" d="M347.84,23.88c-6.11,14.64-14,28.43-21.08,42.58-2,4-3.25,7.74-3.07,12.2.26,6.43-.13,12.88.14,19.31.18,4.21-1.72,5.67-5.58,5.56-3.14-.09-6.29-.14-9.43-.2-1.34-1.11-2.36-2.41-2-4.26,4-22.33-6.35-40.71-16.39-59.19-2.29-4.21-4.37-8.54-6.55-12.82-1.64-3.22-.88-5.33,3-5.06,4.81.33,10-1.72,14.32,2.11L315.94,57c2.22-5.77,4.13-10.69,6-15.61,2.4-5.06,4.95-10,7.14-15.2,1.2-2.83,3-4.44,6-4.14C339.37,22.43,344.07,20.14,347.84,23.88Z"/><path class="cls-6" d="M328.65,174.22c1,3.81-.12,5.32-4.42,5.11-7.62-.36-15.27-.2-22.91-.05-2.8.06-3.91-.77-3.7-3.65.26-3.46.18-6.94.24-10.41,1.76-5.14.12-10.49,1-16.22Z"/><path class="cls-6" d="M322,41.35c-1.9,4.92-3.81,9.84-6,15.61L301.13,24.11a2.68,2.68,0,0,1,2.59,1C309,31.47,315.52,36.35,322,41.35Z"/><path class="cls-2" d="M505.81,64.89l-.55-1.06c.18-.37.37-.73.56-1.09A1.5,1.5,0,0,1,505.81,64.89Z"/><path class="cls-14" d="M541.19,153c0-5.73,4.76-6.35,7.37-6.3,10.61.22,21.27-.74,31.84.84,7,1,13.07,3.74,17.31,9.67,6.92,15.41,3.32,25.81-12,34.25,11.16,8.91,13.57,22.58,19.13,34.52.64,1.39.78,2.82-.86,3.92-6.26,4.18-15.6,1.44-18.41-5.41s-5.37-13.56-8.51-20.12c-3.38-7.06-7.49-8.72-15.06-7.47-2.68.45-2,2.2-2,3.67-.07,7.45,0,14.9,0,22.35s-1.3,8.63-8.62,8.7c-1.33,0-2.65.1-4,.16-3.28-.81-2.91-1.86-4.35-2.82-.1-1.15-1.8-2.19-1.8-5.64m18.78-52c0,3.14,0,6.27,0,9.41,0,1.8.59,2.78,2.57,2.73,3.8-.08,7.63.25,11.38-.67,6.91-1.69,10.31-6.76,9.16-13.61-1.27-7.5-7.83-10.94-20.09-9.42"/><path class="cls-5" d="M604.05,35.08c3.54.28,5,3.48,7.25,5.38C618.74,46.61,626,53,633.66,59.6c1.35-3.85-.26-7.39,1.13-10.58q.15,24.54.3,49.08.07,12.16.09,24.31l-63.92-.1c-6.27-7-13.92-12.5-20.92-18.71-1.11-1-2.44-1.68-2.86-3.25,8.36,4.36,17.33,5.44,26.59,5,17.34-.81,30.55-12.15,33.93-29C610.85,62.19,610.15,48.39,604.05,35.08Z"/><path class="cls-15" d="M465.72,147.52c.1.65.23,1.3.31,2,1.09,8.9.11,10-8.84,10-6.49,0-13,.09-19.45-.06-3.06-.06-4.61.67-4.38,4.15a102.78,102.78,0,0,1-.05,12.41c-.16,3,1,4.12,4,4.06,6.32-.13,12.64.16,18.95-.05,5.79-.19,5.16,3.63,5.25,7.35.1,3.92-.77,6.22-5.55,5.91-6.12-.4-12.29.07-18.44-.13-3.33-.12-4.34,1.16-4.21,4.33.21,5.12.3,10.27.05,15.39-.17,3.3.89,4.35,4.19,4.27,7.64-.21,15.29-.09,22.93-.1,2.75,0,5.94,0,5.71,3.75-.22,3.57,2.73,8.81-4,9.86a4.44,4.44,0,0,0-3.43,0l-2.51,0-.26-.19-.27.19q-15.72-.75-31.44,0l-.27-.19-.27.19-3.23-.13c-3.71-1-4.2-4-4.2-7.06,0-23.55.06-47.1,0-70.65,0-4.79,2.11-6.87,7-6.84,12.48.08,25-.08,37.45-.15C462.65,145.77,464.47,145.83,465.72,147.52Z"/><path class="cls-11" d="M763.73,67.66q.12,27.33.23,54.66H685.19c-4.87-5.66-11-10-16.54-14.83-1.12-1-2.56-.59-3.72-1-1.88-.71.46-1.19.33-1.89a40.12,40.12,0,0,1,5.47-.19c4.52.42,7.19-1.22,8.21-5.87.77-3.54,2.38-6.89,3.35-10.39.65-2.34,1.85-3.13,4.27-3.06,6,.18,12,.09,18,.1,9.55,0,9.55,0,12.74,9.17,3.57,10.23,3.57,10.23,14.54,10,5.56-.11,6.44-1.29,4.64-6.62-2.91-8.63-5.92-17.23-8.91-25.83q-8.47-24.36-17-48.71c5.07,2,8,6.67,12.05,10C734.67,43.1,746.19,53.71,758,64,759.67,65.54,761.41,67.08,763.73,67.66Z"/><path class="cls-15" d="M735.63,161a61.34,61.34,0,0,1,2,46.8c-5.44,15.67-17.58,22.93-33.82,23.8a50.17,50.17,0,0,1-25.55-4.91c-14.19-9.6-16.24-24.2-16.13-39.53.07-8.34,1.5-16.54,5.7-23.93,6.81-12,17.65-17.66,31.12-18.25,14-.61,26.85,2.07,35.7,14.38.3.56.45,1.26,1.31,1.24A.34.34,0,0,0,735.63,161ZM723.25,190a58.5,58.5,0,0,0-1.8-16.45c-2.45-9.26-8.65-14.14-18.28-14.41-10.74-.31-18.26,4.47-21,13.69a55.4,55.4,0,0,0-.28,30.82c1.92,7.14,6.4,11.93,13.83,13.27,7.65,1.37,14.94.64,20.66-5.48C722.49,204.88,722.77,196.54,723.25,190Z"/><path class="cls-5" d="M736,160.57c-.86,0-1-.68-1.31-1.24A1.43,1.43,0,0,1,736,160.57Z"/><path class="cls-16" d="M91.79,24.89c-2.1,6.72-7.47,11.27-11.3,16.82-3.58,5.18-7.41,10.21-11.46,15-2,2.39-1.84,4.06-.19,6.46C75,72.23,81,81.38,87,90.51c1.47,2.21,3,4.41,4.23,6.73,2.64,4.83,1.86,6.21-3.52,6.45-1.83.08-3.68-.14-5.48.07-4.33.49-7.08-1.24-9.35-5-6-9.91-12.39-19.61-18.63-29.39-1-1.52-2-3-3-4.48-2,1-1.14,2.47-1.14,3.6-.08,9.44,0,18.88,0,28.32,0,6.63-.22,6.83-7.09,6.89-2,0-4,0-6,.08-2.49-.62-3.28-2.22-3.27-4.75q.1-35.94,0-71.88c0-3.22,1.37-4.75,4.21-4.85,4.5-.15,9.39-1.36,12.71,3.25-1.19,10.36-.32,20.75-.49,31.13-.07,1.14.4,1.08,1.12.5A170.06,170.06,0,0,0,65.08,37c2.41-3.31,4.79-6.64,7.24-9.92C76.64,21.27,85.94,20.24,91.79,24.89Z"/><path class="cls-12" d="M65.08,37A170.06,170.06,0,0,1,51.29,57.21l-1.12-.5c.17-10.38-.7-20.77.49-31.13C56.17,28.51,60.23,33.26,65.08,37Z"/><path class="cls-3" d="M458.76,230.59a4.44,4.44,0,0,1,3.43,0A4.07,4.07,0,0,1,458.76,230.59Z"/><polygon class="cls-3" points="423.74 230.61 424.01 230.42 424.29 230.61 424.01 230.76 423.74 230.61"/><polygon class="cls-3" points="455.72 230.61 455.99 230.42 456.25 230.6 455.99 230.75 455.72 230.61"/><path class="cls-13" d="M710.56,23.16q8.48,24.36,17,48.71c3,8.6,6,17.2,8.91,25.83,1.8,5.33.92,6.51-4.64,6.62-11,.22-11,.22-14.54-10-3.19-9.17-3.19-9.16-12.74-9.17-6,0-12,.08-18-.1-2.42-.07-3.62.72-4.27,3.06-1,3.5-2.58,6.85-3.35,10.39-1,4.65-3.69,6.29-8.21,5.87a40.12,40.12,0,0,0-5.47.19c-3.34-.61-4.34-2.25-3.15-5.64,8.42-24,16.81-48.06,25-72.17,1.51-4.46,4.09-6.07,8.5-5.65C700.61,21.58,706,19.7,710.56,23.16ZM698.63,37.22c-3.88,11.53-7.39,22-10.92,32.42-.77,2.26.57,2.57,2.29,2.57,5.82,0,11.65,0,17.47,0,2.08,0,2.62-.89,2-2.82C706,59.07,702.49,48.72,698.63,37.22Z"/><path class="cls-14" d="M856.94,34c4.43,15.37.78,24.11-13.45,31.32C854.28,73.73,856.71,86.66,862,98c2.24,4.86,1.14,6.14-4.38,6.17-14,.08-11.08.82-15.78-10.25-2.26-5.32-4.47-10.68-6.9-15.94-2.52-5.47-7-7.89-13-8.07-3.1-.09-4,1-3.93,4,.18,8.27-.09,16.55.13,24.82.09,3.35-1.31,5.19-4.35,5.33-3.48.15-7,1.33-10.51-.15-2-1.18-2.17-3-2.16-5.12q.08-35.39,0-70.76c0-2.87.79-5.13,3.1-6.85,2.83-.08,5.66-.11,8.48-.26,7.28-.38,14.19-.05,21.63.13,1.23-.18,2.83.56,4.18.78C846.45,23.17,853,26.62,856.94,34ZM818,45.38v2.48c0,10.39,1.71,11.88,11.92,9.3,4-1,8.51-2.15,10.22-6.62,1.57-4.09,2-8.34-1.54-11.95-3.63-3.76-15.62-7-19.27-4.4-3,2.13-.74,6.11-1.31,9.21A10.9,10.9,0,0,0,818,45.38Z"/><path class="cls-15" d="M210.74,22a30.87,30.87,0,0,1,1.09,3.8c1.16,7.68,0,9.05-7.77,9-6.48,0-13,.15-19.44-.08-3.54-.13-4.6,1.11-4.35,4.56a83.63,83.63,0,0,1-.18,11.41c-.2,3,1,4.11,4,4,5.81-.15,11.64.16,17.44-.09,4.67-.2,6.18,1.83,6,6.22-.15,4-.32,7.17-5.87,6.74-5.79-.44-11.63,0-17.44-.14-3-.09-4.23,1-4.13,4,.17,5.45.28,10.92.15,16.37-.07,2.82,1.55,2.81,3.51,2.81,7.48,0,14.95-.07,22.43,0,5.47,0,6,1,6.11,7.61.07,4.53-2.1,5.42-6.17,5.38-12.79-.14-25.58.07-38.37.14-3.77-.92-4.19-4-4.2-7,0-22.85,0-45.69.07-68.54,0-3.87,1.41-6.45,5.74-6.43Z"/><path class="cls-15" d="M604.05,35.08c6.1,13.31,6.8,27.11,4,41.3-3.38,16.82-16.59,28.16-33.93,29-9.26.44-18.23-.64-26.59-5C533.65,90.68,531.79,76.2,532,61.11a49.65,49.65,0,0,1,3.69-18.86c5.86-13.81,16.51-20.8,31.06-21.92,13.16-1,25.56,1.08,35,11.63l1.56,2-.07-.08c.06.64.33,1.08,1,1.15ZM592.3,62.62a71.82,71.82,0,0,0-1.76-13.87c-2.46-9.55-8.71-14.48-18.68-14.75s-17.32,4.55-20.22,13.65a52.77,52.77,0,0,0-.76,28.47c2.48,10.52,8.94,15.53,19,15.59,10.63.05,17.94-5.64,20.62-15.91A65.34,65.34,0,0,0,592.3,62.62Z"/><path class="cls-5" d="M603.28,34l-1.56-2C602.86,32.15,603.24,32.94,603.28,34Z"/><path class="cls-5" d="M604.24,35.05c-.7-.07-1-.51-1-1.15Z"/><path class="cls-14" d="M991.7,36c5,9.88,6.43,20.4,5.49,31.3-2,23.17-15.64,36-39,36.5-9.45.2-18.9,0-28.35-.06-2.13-1.8-2.37-4.28-2.37-6.8,0-23.34-.06-46.68,0-70,0-6.42,1.23-7.46,7.69-7.49,6.64,0,13.29,0,19.93.08C969.77,19.62,982.64,23.62,991.7,36ZM944.57,61.68c0,8.45,0,16.9,0,25.35,0,1.79,0,3,2.4,3.39,19.42,3,31.23-6.08,32.53-25.46,1.19-17.81-4.43-33.49-31.05-32-3,.16-4,.8-3.94,3.92C944.7,45.11,944.56,53.4,944.57,61.68Z"/><path class="cls-6" d="M431.11,78.72c0-1.16,0-2.32,0-3.48,0-8.37,0-8.4,8.65-8a54,54,0,0,1,7.43.69c5.95,1.1,9.42,5.18,9.59,11s-2.87,9.76-9.06,11.27c-4.74,1.15-9.59.29-14.39.55-2.12.11-2.26-1.44-2.25-3,0-3,0-6,0-8.93Z"/><path class="cls-6" d="M431,44.32a9.13,9.13,0,0,1,0-1.48c.52-3-1.65-7.9,1.17-8.6,5.44-1.35,11.6-1.67,16.79,1.87,3.63,2.49,3.84,6.3,3.22,10.26-.77,4.93-4.3,7-8.58,8.32a4.13,4.13,0,0,1-.49.07C431.52,56.42,431,56,431,44.32Z"/><path class="cls-7" d="M560,171.31c0-.66,0-1.37,0-2,0-3.82-1-8.56,3-9.6,12.26-1.52,18.82,1.92,20.09,9.42,1.15,6.85-2.25,11.92-9.16,13.61-3.75.92-7.58.59-11.38.67-2,.05-2.6-.93-2.57-2.73C560,177.58,560,174.45,560,171.31Z"/><path class="cls-5" d="M723.25,190c-.48,6.52-.76,14.86-6.9,21.44-5.72,6.12-13,6.85-20.66,5.48-7.43-1.34-11.91-6.13-13.83-13.27a55.4,55.4,0,0,1,.28-30.82c2.77-9.22,10.29-14,21-13.69,9.63.27,15.83,5.15,18.28,14.41A58.5,58.5,0,0,1,723.25,190Z"/><path class="cls-4" d="M50.17,56.71l1.12.5C50.57,57.79,50.1,57.85,50.17,56.71Z"/><path class="cls-11" d="M698.63,37.22c3.86,11.5,7.32,21.85,10.81,32.19.65,1.93.11,2.83-2,2.82-5.82,0-11.65,0-17.47,0-1.72,0-3.06-.31-2.29-2.57C691.24,59.2,694.75,48.75,698.63,37.22Z"/><path class="cls-7" d="M818,45.38a10.9,10.9,0,0,1,0-2c.57-3.1-1.72-7.08,1.31-9.21,3.65-2.59,15.64.64,19.27,4.4,3.49,3.61,3.11,7.86,1.54,11.95-1.71,4.47-6.22,5.61-10.22,6.62C819.71,59.74,818,58.25,818,47.86Z"/><path class="cls-5" d="M592.3,62.62a65.34,65.34,0,0,1-1.77,13.18c-2.68,10.27-10,16-20.62,15.91-10.09-.06-16.55-5.07-19-15.59a52.77,52.77,0,0,1,.76-28.47c2.9-9.1,10.2-13.93,20.22-13.65s16.22,5.2,18.68,14.75A71.82,71.82,0,0,1,592.3,62.62Z"/><path class="cls-10" d="M944.56,61.68c0-8.28.14-16.57-.07-24.85-.08-3.12.94-3.76,3.94-3.92,26.62-1.44,32.24,14.24,31.05,32.05-1.3,19.38-13.11,28.43-32.53,25.46-2.4-.36-2.41-1.6-2.4-3.39C944.59,78.58,944.57,70.13,944.56,61.68Z"/></g></g></svg>